<?xml version="1.0" encoding="UTF-8" standalone="no"?><svg xmlns="http://www.w3.org/2000/svg" xmlns:xlink="http://www.w3.org/1999/xlink" fill="#f4f6fc" height="177.8" preserveAspectRatio="xMidYMid meet" version="1" viewBox="39.9 190.9 423.1 177.8" width="423.1" zoomAndPan="magnify"><g id="change1_1"><path d="M132.13,283.63c0.64,0,1.46,0.12,2.23-0.01c1.82-0.3,3.67-0.59,5.43-1.12c3.59-1.09,7.31-1.43,10.98-1.44 c6.78-0.02,13.56-0.4,20.34-0.17c4.15,0.14,8.17,0.87,12.11,2.14c3.23,1.03,5.88,2.91,8.2,5.32c0.14,0.15,0.29,0.29,0.41,0.46 c1.56,2.19,2.95,5.4,0.14,8.4c-1.12,1.2-2.08,2.59-3.33,3.63c-1.28,1.07-2.41,2.22-3.4,3.54c-1.64,2.19-3.8,3.73-6.28,4.85 c-3.76,1.69-7.57,3.19-11.68,3.87c-6.49,1.07-12.97,2.22-19.45,3.36c-2.63,0.46-5.23,1.05-7.67,1.88c-1.57,3.41-1.58,3.41-1.55,5.91 c0.02,1.84,0.31,3.67-0.43,5.49c-0.27,0.67-0.15,1.69,0.17,2.39c1.49,3.28,1.91,6.69,1.7,10.24c-0.04,0.61,0.07,1.23,0.13,1.85 c0.26,2.7,0.07,5.33-0.91,7.9c-0.36,0.96-0.63,1.97-0.75,2.99c-0.21,1.71-0.93,3.11-2.03,4.4c-1.33,1.56-2.53,3.24-3.86,4.81 c-2.75,3.27-6.36,4.4-10.5,3.87c-4.08-0.53-7.3-2.46-9.7-5.91c-1.89-2.72-3.82-5.38-4.63-8.64c-0.35-1.39-0.63-2.81-0.77-4.23 c-0.41-4.3-0.77-8.6-1.09-12.9c-0.3-4.13-0.79-8.18-3.14-11.78c-0.42-0.64-0.46-1.53-0.67-2.26c-0.56-0.01-0.99-0.14-1.34-0.01 c-5.08,1.78-10.39,2.49-15.67,3.35c-0.81,0.13-1.64,0.18-2.45,0.33c-7.97,1.46-15.98,1.07-23.99,0.56 c-2.88-0.18-5.74-0.58-8.62-0.65c-4.13-0.1-6.53-2.56-7.72-6.03c-1.6-4.68-2.46-9.55-1.14-14.55c0.31-1.17,0.39-2.42,0.46-3.64 c0.05-0.92,0.47-1.53,1.19-2c0.51-0.34,1.23-0.56,1.5-1.03c1.45-2.54,3.84-3.61,6.45-4.41c1.18-0.36,2.39-0.7,3.48-1.26 c5.18-2.65,10.83-3.91,16.36-5.46c2.36-0.66,4.84-0.93,7.28-1.27c4.89-0.67,9.79-1.26,14.68-1.89c0.41-0.05,0.81-0.15,1.21-0.23 c0.61-0.13,1.47-1.17,1.44-1.81c-0.27-6.37,0.19-12.73,0.35-19.09c0.16-6.25,1.34-12.24,4.35-17.79c0.59-1.08,1.1-2.21,1.58-3.35 c0.94-2.23,2.38-3.73,4.92-4.16c0.92-0.15,1.75-1,2.55-1.61c1.11-0.85,2.27-0.78,3.51-0.44c1.87,0.52,3.38,1.6,4.32,3.27 c0.9,1.61,1.73,3.29,2.32,5.03c3.22,9.56,6.78,18.99,10.43,28.38c0.98,2.52,1.58,5.11,1.75,7.8 C131.44,281.48,131.31,282.54,132.13,283.63z M45.84,304.49c-0.71,2.79-0.68,4.63,0.49,6.25c1.6,2.21,3.58,3.94,6.32,4.66 c2.8,0.73,5.61,1.27,8.53,0.98c2.86-0.28,5.72-0.47,8.56-1.02c3.62-0.69,7.32-1.04,11.01-1.36c1.84-0.16,3.66-0.38,5.49-0.59 c4.51-0.51,8.91-1.57,13.36-2.34c3.23-0.56,6.51-0.84,9.77-1.22c0.91-0.1,2.1,0.81,2.32,1.69c0.1,0.4,0.2,0.8,0.27,1.2 c1.22,7.29,2.4,14.59,3.67,21.88c0.91,5.27,1.89,10.52,3.46,15.65c1.01,3.29,2.72,5.96,5.66,7.76c1.5,0.92,3.07,0.98,4.69,0.13 c2.25-1.18,3.83-3.08,5.5-4.89c1.93-2.09,2.71-4.51,2.41-7.36c-0.26-2.45-0.27-4.92-0.48-7.37c-0.09-1.01-0.29-2.04-0.62-3 c-2.58-7.62-4.17-15.45-5.25-23.4c-0.2-1.5,0.45-2.45,1.85-2.6c3.06-0.34,6.15-0.55,9.19-1.03c4.47-0.71,8.95-1.29,13.45-1.78 c3.26-0.36,6.49-1.08,9.69-1.81c3.81-0.87,7.59-1.83,11.34-2.91c2.36-0.68,4.66-1.6,6.95-2.5c2.51-1,4.6-2.67,6.59-4.47 c0.89-0.81,0.96-2.36,0.23-3.38c-1.86-2.58-4.22-4.57-7.23-5.53c-4.31-1.38-8.68-2.52-13.29-2.36c-5.95,0.2-11.91,0.4-17.86,0.42 c-3.73,0.01-7.37,0.44-10.99,1.29c-2.4,0.56-4.83,1.02-7.24,1.5c-1.2,0.24-2.42,0.44-3.63,0.62c-0.65,0.1-1.78-0.73-1.83-1.39 c-0.14-1.63-0.39-3.28-0.25-4.9c0.18-2.12-0.17-4.09-0.87-6.04c-1.89-5.22-3.76-10.44-5.73-15.63c-1.61-4.22-3.26-8.42-4.53-12.77 c-0.4-1.38-0.89-2.75-1.51-4.04c-0.44-0.91-1.11-1.72-1.76-2.5c-0.76-0.91-2.42-0.94-3.37-0.2c-1.89,1.47-3.04,3.4-3.26,5.74 c-0.61,6.33-1.57,12.66-0.93,19.06c0.14,1.43,0.15,2.87,0.19,4.3c0.08,2.46,0.13,4.93,0.22,7.39c0.07,1.87,0.38,3.67,1.49,5.27 c0.35,0.5,0.58,1.08,0.81,1.65c0.33,0.83,0.17,1.61-0.37,2.3c-0.64,0.83-1.4,1.54-2.51,1.6c-3.48,0.18-6.97,0.31-10.45,0.49 c-2.05,0.11-4.1,0.19-6.14,0.42c-3.68,0.42-7.33,1.03-11.01,1.4c-3.91,0.4-7.72,1.19-11.43,2.46c-5.05,1.73-10.05,3.6-15.12,5.27 c-2.34,0.77-3.83,2.33-4.86,4.42C46.23,303.01,45.93,304.22,45.84,304.49z"/></g><g id="change1_2"><path d="M247.84,277.47c0.44-5.21,1.67-10.06,4.6-14.51c2.71-4.13,5.64-8.03,8.96-11.7c2.31-2.56,4.81-5.06,6.22-8.33 c3.26-4.22,5.98-8.86,9.76-12.69c1.46-1.47,2.63-3.13,3.64-4.94c5.48-9.84,12.86-18.02,21.88-24.74c1.48-1.1,2.87-2.33,4.36-3.44 c4.38-3.27,6.22-4.06,11.71-5.04c0.6-0.11,1.27-0.18,1.82-0.01c0.75,0.23,1.66,0.53,2.1,1.1c1.27,1.63,2.09,3.52,2.26,5.63 c0.21,2.7,0.04,5.38-1,7.88c-1.58,3.79-3.1,7.62-5.55,10.97c-3.64,4.97-7.24,9.97-10.87,14.95c-2.79,3.81-5.66,7.55-8.15,11.59 c-2.16,3.48-4.79,6.67-7.23,9.97c-1.46,1.98-3.06,3.88-4.4,5.94c-3.02,4.67-6.42,9.06-9.99,13.3c-3.33,3.95-7.35,7.18-11.88,9.69 c-2.15,1.18-4.43,2.13-6.66,3.15c-2.24,1.03-4.44,0.55-6.55-0.37c-1.52-0.66-2.75-1.8-3.77-3.12c-0.36-0.47-0.67-1.06-0.78-1.64 C248.07,279.91,247.98,278.68,247.84,277.47z M321.98,199.84c-0.28-0.86-0.63-2.03-1.06-3.18c-0.23-0.64-1.56-1.09-2.12-0.76 c-0.87,0.53-1.8,1-2.57,1.65c-1.72,1.46-3.29,3.1-5.05,4.51c-5.02,4.02-9.01,9.01-12.71,14.15c-3.96,5.51-8.21,10.76-12.52,15.99 c-0.78,0.95-1.54,1.92-2.24,2.93c-3.72,5.41-7.33,10.9-11.14,16.24c-3.81,5.34-7.64,10.68-12.26,15.39 c-1.15,1.17-2.19,2.46-3.17,3.77c-2.25,3-1.83,6.78,0.99,9.4c0.61,0.57,1.4,1.04,2.22,0.85c3.81-0.86,7.52-1.86,10.5-4.71 c2.08-1.99,4.2-3.91,5.93-6.24c4.16-5.61,8.35-11.18,12.48-16.8c2.43-3.3,5.01-6.53,7.13-10.03c3.43-5.64,7.64-10.67,11.65-15.87 c4.64-6.02,8.98-12.23,12.12-19.23C321.29,205.41,321.7,202.84,321.98,199.84z"/></g><g id="change1_3"><path d="M205.71,356.94c-4.03-0.86-7.45-1.55-10.85-2.32c-1.4-0.32-2.79-0.71-4.13-1.23c-3.94-1.53-6.27-4.48-7.19-8.55 c-0.36-1.6-0.54-3.24-0.76-4.87c-0.08-0.6-0.09-1.23-0.03-1.84c0.21-2.06,3.97-7.34,5.98-8.3c3.95-1.88,8.06-2.98,12.51-2.39 c5.32,0.71,10.63,0.48,15.95-0.28c5.28-0.75,10.6-1.28,15.92-1.61c7.99-0.49,15.95-1.36,23.96-1.54c7.45-0.17,14.73,0.64,21.86,2.95 c4.61,1.5,8.44,4.17,12.07,7.21c0.61,0.51,1.1,1.23,1.49,1.94c0.82,1.52,1.04,3.15,0.11,4.7c-0.63,1.04-1.33,2.09-2.19,2.94 c-2.96,2.91-6.35,5.08-10.3,6.52c-5.2,1.91-10.54,3.35-15.8,5.07c-2.12,0.7-4.41,0.99-6.65,1.24c-8.97,1.01-17.95,1.97-26.94,2.84 c-2.23,0.21-4.5,0-6.75-0.02C217.56,359.34,211.39,357.62,205.71,356.94z M207.27,349.65c3.47,0.4,6.94,1.05,10.42,1.13 c6.18,0.15,12.33,0.62,18.49,1.04c4.73,0.33,9.45,0.36,14.18-0.21c3.27-0.39,6.56-0.57,9.84-0.8c4.74-0.33,9.38-1.08,13.88-2.7 c2.9-1.04,5.72-2.27,8.69-3.16c2.78-0.84,4.91-2.95,6.51-5.44c0.37-0.58,0.29-1.83-0.2-2.33c-2.47-2.52-5.28-4.68-8.56-5.92 c-5.21-1.97-10.61-3.56-16.19-3.65c-6.16-0.1-12.34-0.19-18.49,0.47c-3.68,0.4-7.37,0.73-11.07,0.85 c-5.57,0.19-11.09,0.88-16.57,1.69c-3.27,0.48-6.55,0.83-9.82,0.83c-3.49,0-6.95,0.85-10.45,0.37c-0.59-0.08-1.22,0.13-1.83,0.23 c-2.45,0.41-4.08,1.87-5.02,4.1c-1.07,2.53-0.21,4.83,0.96,7.06c0.17,0.33,0.59,0.57,0.94,0.77 C197.45,346.58,202.05,348.85,207.27,349.65z"/></g><g id="change1_4"><path d="M316.96,284.29c-5.11-0.06-9.71-1.47-13.3-5.32c-1.83-1.95-3.4-4.11-4.65-6.5c-0.91-1.74-1.09-3.57-0.47-5.38 c0.99-2.91,1.97-5.85,3.27-8.63c1.63-3.48,4.15-6.1,8.2-6.77c1.01-0.17,1.98-0.54,2.98-0.78c2.35-0.56,4.54-0.05,6.39,1.42 c4.07,3.23,7.5,7.07,9.53,11.9c1.73,4.13,1.85,8.4-0.23,12.52c-0.55,1.1-1.19,2.16-1.86,3.19c-0.33,0.51-0.75,1.02-1.25,1.34 C322.93,282.93,320.22,284.38,316.96,284.29z M320.57,278.81c0.17-0.01,1,0,1.79-0.17c0.58-0.12,1.22-0.36,1.64-0.76 c1.69-1.58,2.83-3.5,3.01-5.85c0.06-0.78-0.03-1.72-0.42-2.35c-0.98-1.57-1.78-3.17-2.34-4.95c-1.12-3.6-4.02-5.54-7.19-7.12 c-0.71-0.35-1.57-0.48-2.37-0.58c-2.86-0.33-7.53,1.7-7.54,6.31c-0.02,4.45,1.17,8.5,4.76,11.48c1.25,1.04,2.63,1.93,3.96,2.88 C317.08,278.57,318.45,278.9,320.57,278.81z"/></g><g id="change1_5"><path d="M257.93,191.19c1.7-0.25,3.27,0.13,4.82,0.75c1.52,0.61,3.04,1.24,4.61,1.67c1.89,0.53,3.27,1.61,4.37,3.18 c3.33,4.75,3.4,10.79-0.05,15.47c-1.58,2.14-3.43,4.07-5.19,6.07c-0.4,0.46-0.88,0.88-1.4,1.2c-3.98,2.4-8.28,3.54-12.92,3 c-0.96-0.11-1.94-0.66-2.77-1.22c-2.1-1.42-3.6-3.45-4.41-5.79c-2.26-6.59-1.9-12.9,2.53-18.64c1.54-1.99,3.45-3.58,5.63-4.67 C254.59,191.53,256.34,191.51,257.93,191.19z M259.03,195.14c-5.49,0.11-10.48,5.85-9.82,10.84c0.08,0.6,0.24,1.2,0.43,1.78 c0.88,2.65,2.68,4.43,5.06,5.87c2.95,1.78,5.69,1.9,8.6,0.05c1.44-0.92,2.48-2.09,3.04-3.68c0.4-1.15,0.79-2.31,1.12-3.49 c0.59-2.07,0.21-4.05-0.73-5.93c-0.36-0.72-0.92-1.34-1.37-2.02C263.76,196.14,261.43,195.14,259.03,195.14z"/></g><g id="change1_6"><path d="M397.97,249.28c0.32-0.4,0.81-0.86,1.09-1.4c0.65-1.27,1.33-2.54,1.77-3.87c0.9-2.7,2.45-5.17,4.24-7.47 c3.3-4.25,6.31-8.66,9.81-12.81c2.14-2.54,4.68-4.75,7.6-6.7c2.39-1.59,5.17-2.48,8.2-2.93c0.19-0.03,0.37-0.06,0.56-0.07 c2.49-0.07,5.7,0.39,6.69,3.39c0.4,1.2,1.02,2.37,1.23,3.59c0.22,1.24,0.57,2.43,1.13,3.6c0.92,1.94,1.08,3.93,0.75,5.95 c-0.51,3.06-1.19,6.07-2.67,8.92c-2.33,4.51-4.59,9.05-6.86,13.58c-0.92,1.84-1.73,3.71-2.27,5.58c1.92,2.4,1.91,2.4,3.9,3.42 c1.46,0.75,3.04,1.33,4.11,2.54c0.4,0.45,1.26,0.79,1.96,0.88c3.31,0.42,6.21,1.57,8.9,3.18c0.46,0.28,1.01,0.46,1.52,0.68 c2.25,0.95,4.23,2.17,5.78,3.84c0.58,0.62,1.25,1.21,1.98,1.71c1.24,0.84,2,1.87,2.48,3.1c0.58,1.48,1.31,2.93,1.9,4.41 c1.23,3.08,0.36,5.81-2.09,8.18c-2.41,2.34-5.51,3.55-9.4,3.63c-3.07,0.06-6.1,0.16-9.07-0.68c-1.26-0.36-2.52-0.77-3.71-1.27 c-3.59-1.52-7.15-3.08-10.7-4.66c-3.4-1.52-6.83-2.9-10.81-2.91c-0.71,0-1.43-0.35-2.11-0.52c-0.28,0.34-0.59,0.57-0.67,0.83 c-1.08,3.92-3.12,7.54-5.03,11.2c-0.29,0.56-0.66,1.1-0.93,1.67c-2.74,5.6-6.97,10.45-11.29,15.26c-1.55,1.73-3.26,3.36-4.73,5.13 c-2.1,2.55-5.21,3.03-8.53,2.34c-4.47-0.94-8.73-2.42-12.01-5.32c-0.77-0.68-1.71-1.25-2.64-1.8c-0.7-0.41-0.97-0.93-0.99-1.57 c-0.01-0.46,0.17-1-0.08-1.37c-1.29-1.96-0.97-3.9-0.32-5.87c0.29-0.89,0.61-1.79,0.71-2.7c0.45-4.34,2.22-8.4,3.7-12.51 c0.63-1.75,1.63-3.42,2.56-5.09c1.86-3.34,3.79-6.65,5.69-9.98c0.16-0.28,0.28-0.57,0.41-0.85c0.2-0.44-0.2-1.41-0.72-1.65 c-5.15-2.47-9.93-5.39-14.86-8.13c-4.85-2.69-8.99-5.91-11.89-10.1c-0.57-0.82-1.2-1.61-1.86-2.38c-1.3-1.51-1.78-3.04-0.87-4.81 c0.33-0.64,0.07-1.51-0.02-2.27c-0.13-1.05,0.5-1.75,1.37-2.38c1.33-0.96,2.91-1.46,4.68-1.35c1.7,0.1,3.43,0.28,5.09,0.63 c9.1,1.94,18.27,3.62,27.46,5.23c2.46,0.43,4.79,1.13,7,2.14C395.94,248.83,396.71,249.34,397.97,249.28z M372.21,311.98 c1.85,1.6,3.32,2.35,5.16,2.28c2.52-0.08,4.85-0.61,6.76-2.03c1.95-1.45,3.74-2.99,4.94-4.94c1.18-1.91,2.42-3.78,3.39-5.78 c1.23-2.56,2.76-5.02,4.31-7.46c0.78-1.22,1.49-2.45,2.22-3.69c1.8-3.04,3.12-6.23,4.69-9.34c1.14-2.26,2.52-4.43,3.82-6.63 c0.36-0.61,1.66-0.98,2.47-0.75c0.36,0.1,0.72,0.21,1.08,0.33c6.34,2.26,12.67,4.54,19.03,6.77c4.6,1.61,9.21,3.18,14.02,4.32 c3.08,0.73,6.03,0.77,8.88-0.33c1.46-0.56,2.27-1.52,2.4-2.88c0.17-1.9-0.55-3.67-1.16-5.47c-0.7-2.08-2.23-3.57-4.62-4.56 c-2.05-0.85-4.01-1.87-6.04-2.75c-0.84-0.37-1.75-0.66-2.67-0.86c-7.26-1.54-14.21-3.79-21-6.41c-1.28-0.5-1.71-1.3-1.15-2.24 c1.23-2.06,2.57-4.08,3.68-6.18c1.62-3.1,3.36-6.14,5.17-9.16c1.31-2.19,2.32-4.51,3.31-6.82c1.18-2.74,2.27-5.52,3.25-8.31 c0.62-1.76,1.02-3.58,1.43-5.39c0.44-1.99,0.15-3.99-0.3-5.98c-0.2-0.9-1.39-1.58-2.55-1.54c-2.94,0.1-5.66,0.75-7.89,2.24 c-3.19,2.13-6.23,4.4-8.36,7.35c-2.75,3.81-5.5,7.62-8.4,11.36c-1.81,2.34-3.26,4.8-4.36,7.42c-0.73,1.74-1.55,3.45-2.36,5.16 c-0.4,0.85-0.84,1.7-1.29,2.53c-0.24,0.45-1.44,0.81-1.99,0.57c-1.35-0.59-2.78-1.11-3.98-1.87c-1.58-0.99-3.31-1.59-5.18-1.96 c-5.03-0.98-10.06-1.97-15.11-2.89c-4.11-0.74-8.23-1.45-12.27-2.45c-1.28-0.32-2.6-0.58-3.92-0.73c-0.93-0.1-1.89-0.02-2.83,0.07 c-1.09,0.1-1.92,1.13-1.8,2.03c0.23,1.79,1.19,3.31,2.93,4.42c4.69,3.01,9.2,6.23,14.56,8.48c1.19,0.5,2.33,1.1,3.48,1.66 c1.98,0.97,3.94,1.96,5.93,2.93c1.51,0.73,3.08,1.28,4.88,1.25c0.56-0.01,1.14,0.09,1.7,0.18c0.81,0.13,1.35,0.56,1.63,1.19 c0.34,0.75,0.53,1.51,0.03,2.24c-1.56,2.26-3.16,4.49-4.72,6.75c-0.92,1.33-1.86,2.65-2.67,4.02c-1.47,2.48-2.78,5.02-4.28,7.48 c-1.59,2.62-2.84,5.33-3.66,8.18c-1.11,3.88-2.08,7.79-3.24,11.65c-0.54,1.79-0.04,3.37,1.11,4.87 C371.24,311.12,372.05,311.81,372.21,311.98z"/></g></svg>