<?xml version="1.0" encoding="UTF-8" standalone="no"?><svg xmlns="http://www.w3.org/2000/svg" xmlns:xlink="http://www.w3.org/1999/xlink" fill="#f4f6fc" height="168.4" preserveAspectRatio="xMidYMid meet" version="1" viewBox="0.7 0.7 298.4 168.4" width="298.4" zoomAndPan="magnify"><g id="change1_1"><path d="M285.13,107.91c0.79,0.63,1.57,1.15,2.24,1.78c1.12,1.04,2.21,2.12,3.25,3.25c1.15,1.24,2.24,2.53,3.34,3.81 c0.33,0.39,0.61,0.91,0.37,1.38c-0.23,0.45-0.75,0.63-1.3,0.61c-0.12-0.01-0.24-0.01-0.36,0c-0.38,0.05-0.89-0.2-1.06,0.28 c-0.06,0.17,0.34,0.5,0.54,0.75c0.99,1.24,2,2.47,2.99,3.72c0.36,0.45,0.39,0.97-0.02,1.38c-0.56,0.57-0.66,1.25-0.76,1.99 c-0.15,1.2-0.45,2.39-0.69,3.58c-0.02,0.08-0.01,0.16-0.02,0.23c-0.08,1.22-0.22,2.43-0.23,3.65c-0.03,4.51,0,9.03-0.02,13.54 c0,0.49,0.21,1.02-0.21,1.49c-0.09,0.1,0.09,0.51,0.23,0.72c1.11,1.67,1.58,3.62,2.49,5.38c0.67,1.29,1.32,2.6,1.97,3.9 c0.29,0.57,0.53,1.16,0.86,1.7c0.39,0.63,0.21,1.31,0.21,1.96c0,0.39-0.87,0.78-1.33,0.68c-0.37-0.08-0.74-0.18-1.12-0.22 c-1.27-0.14-2.55-0.13-3.79-0.48c-0.15-0.04-0.32-0.01-0.48-0.01c-1.33,0.02-2.62-0.21-3.91-0.47c-0.92-0.18-1.87-0.15-2.8-0.27 c-0.87-0.11-1.73-0.3-2.6-0.43c-0.76-0.11-1.53-0.19-2.3-0.29c-1.92-0.24-3.84-0.41-5.74-0.75c-1.75-0.31-3.5-0.53-5.26-0.73 c-1.5-0.17-3.01-0.34-4.51-0.49c-1.91-0.19-3.82-0.33-5.72-0.5c-1.14-0.1-2.3-0.01-3.4-0.23c-1.51-0.3-3.02-0.03-4.5-0.22 c-3.51-0.46-7.03-0.14-10.54-0.21c-3.55-0.06-7.1-0.18-10.64,0.05c-2.31,0.15-4.63-0.06-6.91,0.23c-2.19,0.28-4.39-0.04-6.55,0.23 c-2.19,0.28-4.39-0.01-6.55,0.26c-1.51,0.19-3.02-0.01-4.5,0.23c-1.43,0.23-2.87,0.01-4.25,0.25c-1.43,0.25-2.86,0-4.25,0.23 c-1.26,0.21-2.52,0.09-3.77,0.23c-1.99,0.22-3.97,0.41-5.97,0.48c-1.67,0.06-3.34,0.24-5,0.48c-1.58,0.23-3.17,0.36-4.76,0.5 c-1.71,0.14-3.42,0.3-5.12,0.5c-2.01,0.23-4.04,0.39-6.02,0.91c-1.78,0.48-3.54,1-5.06,2.08c-1.62,1.15-3.5,1.69-5.35,2.26 c-2.02,0.62-4.12,0.61-6.2,0.47c-1.48-0.1-2.94-0.53-4.42-0.68c-1.64-0.16-3.16-0.69-4.71-1.19c-1.41-0.45-2.68-1.16-3.93-1.88 c-0.69-0.39-1.38-0.68-2.09-0.78c-1.86-0.26-3.68-0.66-5.52-0.98c-1.49-0.26-3.01-0.3-4.51-0.52c-1.86-0.27-3.74-0.31-5.6-0.53 c-1.55-0.18-3.09-0.05-4.62-0.19c-4.88-0.44-9.78-0.38-14.65-0.17c-4.81,0.2-9.62-0.04-14.41,0.23c-1.78,0.1-3.58-0.03-5.34,0.23 c-1.55,0.23-3.1,0-4.62,0.24c-1.47,0.23-2.94,0.01-4.37,0.24c-1.39,0.23-2.78,0.01-4.13,0.24c-1.31,0.22-2.62,0.02-3.89,0.24 c-1.23,0.21-2.46,0.02-3.65,0.24c-1.15,0.21-2.29,0.07-3.41,0.22c-1.86,0.26-3.74,0.31-5.61,0.47c-1.55,0.13-3.09,0.31-4.64,0.48 c-1.39,0.15-2.78,0.28-4.15,0.49c-1.42,0.23-2.84,0.38-4.27,0.5c-1.64,0.13-3.26,0.49-4.9,0.69c-1.13,0.14-2.29,0.06-3.4,0.28 c-1.06,0.21-2.14,0.09-3.2,0.42c-0.8,0.25-1.7,0.2-2.55,0.27c-1.01,0.09-2.05,0.05-3.04,0.27c-1.35,0.29-2.74,0.25-4.07,0.68 c-0.65,0.21-1.38,0.16-2.07,0.27c-1.51,0.23-3.02,0.5-4.54,0.72c-0.81,0.12-1.63,0.14-2.44,0.26c-0.87,0.13-1.72,0.38-2.58,0.46 c-0.92,0.08-1.86,0.1-2.78-0.01c-0.94-0.11-1.22-0.98-0.73-1.98c0.33-0.67,0.67-1.33,1.02-1.99c1.04-1.95,2.06-3.91,3.14-5.83 c0.83-1.47,1.62-2.96,1.98-4.62c0.11-0.53,0.3-1.13,0.15-1.61c-0.35-1.1-0.07-2.21-0.22-3.29c-0.3-2.3-0.02-4.63-0.28-6.91 c-0.31-2.72-0.06-5.42-0.2-8.13c-0.07-1.34,0.02-2.67-0.18-4.02c-0.19-1.26,0.09-2.59,0.2-3.88c0.02-0.2,0.25-0.37,0.39-0.56 c1.05-1.46,2.11-2.91,3.15-4.38c0.06-0.08-0.01-0.38-0.05-0.39c-0.42-0.06-0.67-0.28-0.6-0.71c0.06-0.41,0.09-0.88,0.32-1.19 c0.92-1.24,1.93-2.43,2.89-3.65c1.36-1.73,2.61-3.56,4.06-5.2c1.5-1.69,2.56-3.71,4.21-5.26c0.21-0.2,0.21-0.4-0.16-0.47 c-0.82-0.15-1.64-0.33-2.46-0.48c-0.74-0.13-1.48-0.25-2.15-0.65c-0.8-0.49-0.88-0.92-0.25-1.59c1.17-1.25,2.3-2.53,3.52-3.74 c1.58-1.57,3.26-3.06,4.84-4.63c1.41-1.41,2.72-2.91,4.12-4.33c1.03-1.04,2.15-2,3.22-3.01c0.15-0.14,0.21-0.38,0.31-0.58 c-0.19-0.03-0.37-0.08-0.56-0.1c-1.79-0.16-3.58-0.25-5.36-0.5c-2.38-0.33-4.76-0.74-7.12-1.21c-1.22-0.24-2.43-0.41-3.67-0.49 c-0.57-0.04-1.21-0.28-1.65-0.63c-0.52-0.41-0.34-1.15-0.17-1.67c0.47-1.45,1.06-2.86,1.63-4.28c0.81-2.03,1.87-3.93,3.15-5.71 c0.65-0.91,1.32-1.81,2.05-2.66c1.37-1.58,2.77-3.13,4.18-4.68c1.18-1.29,2.39-2.56,3.59-3.83c1.62-1.71,3.22-3.43,4.88-5.11 c6.52-6.62,13.04-13.23,19.58-19.82c1.6-1.61,3.23-3.21,4.95-4.69c2.02-1.75,4.15-3.38,6.24-5.06c1.96-1.57,3.9-3.18,5.92-4.69 c1.61-1.2,3.34-2.26,4.99-3.41c1.39-0.97,2.74-0.74,4.14-0.06c1.81,0.88,3.64,1.71,5.46,2.57c1.99,0.94,4.01,1.82,5.95,2.86 c0.64,0.35,0.75,0.11,1.02-0.32c1.46-2.34,2.94-4.67,4.43-6.99c1.4-2.18,2.54-4.5,3.62-6.84c0.85-1.84,1.76-3.65,1.95-5.72 c0.04-0.43,0.25-0.86,0.42-1.27c0.33-0.76,1.02-0.92,1.64-0.38c1.25,1.07,2.53,2.12,3.73,3.26c1.54,1.46,3.12,2.92,4.5,4.53 c2,2.32,3.83,4.77,5.75,7.16c1.15,1.43,2.39,2.78,3.49,4.24c1.63,2.19,3.32,4.32,4.93,6.53c1.8,2.47,3.57,4.96,5.25,7.51 c1.25,1.89,2.43,3.82,3.59,5.76c1.39,2.32,2.8,4.63,4.09,7.01c1.23,2.26,2.32,4.6,3.45,6.91c1.75,3.59,3.2,7.29,4.66,11.01 c1.28,3.27,2.27,6.63,3.52,9.91c0.4,1.05,0.51,2.2,0.79,3.3c0.06,0.25,0.23,0.47,0.35,0.7c0.12-0.19,0.26-0.37,0.37-0.56 c0.28-0.53,0.52-1.08,0.84-1.59c1.24-1.99,2.44-4.01,3.77-5.93c1.4-2.02,2.94-3.95,4.43-5.91c1.54-2.04,3.22-3.97,5.04-5.77 c2.61-2.58,5.16-5.21,7.79-7.77c2.14-2.07,4.34-4.08,6.55-6.07c1.72-1.55,3.46-3.07,5.26-4.53c2.01-1.62,4.1-3.14,6.14-4.72 c3.04-2.34,6.39-4.2,9.6-6.28c4.3-2.78,8.92-4.93,13.47-7.21c2.23-1.12,4.53-2.09,6.79-3.16c0.95-0.45,1.87-0.96,2.77-1.49 c0.42-0.25,0.73-0.2,1.17,0c1.4,0.63,2.65,1.44,3.85,2.4c1.98,1.59,4.03,3.1,6.06,4.63c1.26,0.95,2.54,1.86,3.78,2.83 c1.62,1.26,3.23,2.55,4.81,3.85c0.79,0.65,1.54,1.35,2.3,2.05c1.34,1.25,2.68,2.5,4,3.76c2,1.9,4.01,3.79,5.96,5.74 c1.27,1.26,2.49,2.58,3.68,3.92c1.43,1.61,2.82,3.25,4.19,4.91c1.7,2.07,3.4,4.14,5.04,6.25c2.47,3.16,5.1,6.2,7.37,9.52 c1.68,2.46,3.51,4.81,5.09,7.33c1.19,1.89,2.1,3.96,3.1,5.96c0.36,0.72-0.41,1.88-1.26,1.95c-1.17,0.1-2.36,0.11-3.52,0.26 c-1.4,0.18-2.78,0.48-4.18,0.71c-0.69,0.11-1.39,0.15-2.07,0.25c-1.24,0.18-2.47,0.49-3.7,0.65c-1.15,0.15-2.29,0.33-3.42,0.56 c-1.74,0.35-3.48,0.74-5.21,1.14c-1.8,0.41-3.6,0.83-5.39,1.28c-2.19,0.55-4.39,1.06-6.54,1.73c-2.81,0.88-5.59,1.86-8.36,2.87 c-2.24,0.82-4.43,1.75-6.63,2.67c-7.03,2.93-13.81,6.4-20.56,9.91c-2.93,1.52-5.78,3.19-8.66,4.79c-1.74,0.97-3.49,1.91-5.19,2.94 c-2.13,1.29-4.28,2.57-6.32,4c-2.36,1.65-4.63,3.44-6.92,5.2c-1.9,1.46-3.79,2.94-5.65,4.45c-1.22,0.99-2.36,2.06-3.57,3.06 c-1.1,0.91-2.25,1.76-3.37,2.66c-0.64,0.52-1.26,1.07-1.87,1.62c-1.2,1.1-2.39,2.22-3.58,3.33c-2.47,2.31-4.98,4.58-7.4,6.94 c-1.77,1.73-3.43,3.57-5.14,5.36c-0.08,0.08-0.1,0.22-0.15,0.34c0.14-0.04,0.29-0.06,0.41-0.13c1.64-1,3.42-1.76,4.94-2.98 c1.56-1.25,3.19-2.4,4.79-3.6c1.66-1.25,3.31-2.51,4.97-3.76c1.29-0.97,2.58-1.95,3.88-2.9c1.45-1.07,2.9-2.14,4.37-3.16 c2.53-1.76,5.07-3.5,7.64-5.21c1.06-0.71,2.21-1.28,3.31-1.93c1.07-0.63,2.06-1.46,3.21-1.88c1.56-0.57,2.97-1.39,4.45-2.11 c3.59-1.75,7.25-3.31,10.98-4.74c4.11-1.57,8.24-3.08,12.45-4.39c2.97-0.92,5.93-1.88,8.95-2.63c1.9-0.47,3.77-1.04,5.69-1.43 c1.33-0.27,2.63-0.68,3.96-0.95c1.83-0.37,3.68-0.66,5.52-0.98c1.84-0.32,3.68-0.69,5.53-0.95c1.58-0.23,3.17-0.31,4.75-0.51 c1.64-0.21,3.26-0.5,4.9-0.71c1.09-0.13,2.2-0.08,3.28-0.28c1.18-0.21,2.41-0.01,3.56-0.45c0.18-0.07,0.4,0,0.6-0.01 c1.38-0.08,2.76-0.15,4.13-0.24c0.77-0.05,1.55-0.16,2.32-0.24c0.77-0.08,1.55-0.16,2.32-0.24c0.08-0.01,0.2,0.03,0.24-0.01 c0.7-0.83,1.63-0.41,2.47-0.46c1-0.06,2.02,0.02,3.02-0.02c1.5-0.05,3-0.15,4.49-0.24c0.11-0.01,0.21-0.06,0.32-0.1 c-0.04-0.14-0.04-0.32-0.13-0.41c-1.87-1.8-3.73-3.62-5.63-5.38c-0.97-0.9-2.01-1.74-3.05-2.57c-1.33-1.05-2.68-2.08-4.04-3.08 c-1.38-1.02-2.79-2.01-4.2-2.99c-0.71-0.5-1.46-0.96-2.17-1.46c-0.32-0.22-0.55-0.58-0.23-0.89c0.21-0.21,0.67-0.34,0.95-0.26 c0.53,0.15,1.05,0.42,1.5,0.73c2.45,1.69,4.9,3.38,7.31,5.13c1.99,1.44,3.91,2.97,5.68,4.69c1.57,1.53,3.19,3.01,4.76,4.54 c0.42,0.4,0.78,0.88,1.11,1.35c0.34,0.49,0.04,1.31-0.45,1.67c-0.61,0.45-1.33,0.59-2.01,0.68c-1.4,0.19-2.83,0.2-4.25,0.27 c-0.28,0.02-0.57-0.02-0.83,0.04c-0.21,0.05-0.38,0.21-0.57,0.33c0.15,0.12,0.3,0.24,0.46,0.36 C282.88,106.24,283.98,107.04,285.13,107.91 M252.67,87.05c0.12,0,0.24,0.03,0.36,0c1.86-0.48,3.7-0.99,5.57-1.44 c1.58-0.38,3.18-0.7,4.77-1.03c1.56-0.32,3.13-0.62,4.7-0.91c1.09-0.2,2.19-0.36,3.28-0.55c1.24-0.21,2.47-0.48,3.71-0.65 c1.01-0.14,2.04-0.1,3.04-0.27c1.42-0.25,2.83-0.47,4.28-0.47c0.77,0,0.82-0.06,0.44-0.79c-0.92-1.76-1.81-3.53-2.83-5.23 c-0.94-1.56-2-3.05-3.07-4.53c-1.24-1.72-2.53-3.39-3.82-5.07c-1.36-1.78-2.73-3.55-4.13-5.3c-0.85-1.07-1.78-2.08-2.63-3.14 c-1.22-1.5-2.39-3.04-3.61-4.55c-0.59-0.73-1.26-1.41-1.87-2.13c-1.4-1.63-2.71-3.36-4.21-4.89c-2.69-2.75-5.48-5.4-8.27-8.05 c-1.51-1.44-3.09-2.82-4.67-4.19c-1.53-1.33-3.07-2.67-4.66-3.93c-1.47-1.16-3.03-2.22-4.53-3.35c-1.39-1.04-2.76-2.1-4.13-3.16 c-1.41-1.08-2.79-2.19-4.23-3.23c-0.52-0.38-1.09-0.5-1.81-0.14c-3.45,1.69-6.97,3.23-10.41,4.93c-2.75,1.35-5.45,2.81-8.13,4.3 c-2.27,1.26-4.54,2.54-6.68,4c-3.45,2.34-7.04,4.48-10.19,7.23c-1.64,1.43-3.39,2.72-5.05,4.12c-1.45,1.22-2.86,2.48-4.25,3.76 c-2.4,2.21-4.8,4.41-7.14,6.68c-1.46,1.41-2.75,3-4.21,4.41c-2.65,2.55-5.05,5.31-7.25,8.25c-1.03,1.38-2.06,2.76-3.02,4.19 c-1.45,2.13-2.89,4.27-4.23,6.47c-0.94,1.54-1.73,3.18-1.82,5.04c-0.06,1.46-0.16,2.92-0.2,4.37c-0.24,7.1,0.22,14.2-0.27,21.3 c-0.1,1.49,0,2.99,0.18,4.5c0.26,2.16-0.08,4.36,0.25,6.55c0.25,1.63-0.02,3.31,0.23,4.98c0.26,1.71,0.18,3.48,0.23,5.21 c0.17,6.05-0.03,12.11,0.3,18.15c0.01,0.24-0.05,0.5,0.01,0.72c0.1,0.34,0.29,0.65,0.44,0.97c0.27-0.13,0.59-0.21,0.79-0.41 c1.22-1.26,2.4-2.55,3.6-3.82c1.28-1.36,2.55-2.74,3.85-4.08c0.57-0.59,1.25-1.08,1.86-1.63c1.23-1.13,2.47-2.25,3.66-3.42 c2.08-2.05,4.26-3.98,6.54-5.82c1.64-1.33,3.21-2.74,4.84-4.09c1.67-1.39,3.38-2.74,5.07-4.11c1.33-1.08,2.6-2.24,3.99-3.23 c3.1-2.21,6.05-4.64,9.38-6.52c2.46-1.39,4.8-2.97,7.28-4.32c2.07-1.13,4.08-2.35,6.21-3.38c2.22-1.08,4.32-2.41,6.53-3.5 c4.35-2.15,8.73-4.21,13.1-6.3c1.01-0.48,1.99-1.03,3.03-1.44c2.18-0.87,4.42-1.6,6.58-2.51c3.23-1.37,6.57-2.45,9.9-3.54 C250.35,87.68,251.39,87.37,252.67,87.05 M131.75,160.33c0.48,0,1.1,0.19,1.42-0.04c0.66-0.47,1.01,0,1.43,0.25 c0.94,0.54,1.73,1.35,2.84,1.62c0.21,0.05,0.43,0.19,0.58,0.34c1.03,1.02,2.37,1.44,3.67,1.94c2.58,0.98,5.3,1.36,8.01,1.65 c1.71,0.18,3.49,0.27,5.21-0.2c0.5-0.14,0.99-0.38,1.5-0.47c1.85-0.33,3.46-1.23,5.02-2.17c1.15-0.69,2.14-1.65,3.23-2.44 c0.51-0.37,1.06-0.69,1.75-0.74c1.27-0.09,2.53-0.3,3.79-0.46c0.61-0.08,1.23-0.13,1.83-0.25c1.19-0.22,2.37-0.51,3.57-0.71 c1.63-0.27,3.26-0.51,4.9-0.73c1.91-0.26,3.83-0.5,5.74-0.72c1.62-0.19,3.25-0.41,4.88-0.47c2.12-0.07,4.22-0.26,6.33-0.49 c1.13-0.12,2.27-0.12,3.41-0.21c2.33-0.18,4.68-0.1,7.03-0.26c3.87-0.26,7.75,0.11,11.63-0.23c3.49-0.3,7.02-0.07,10.54-0.23 c5.07-0.23,10.15-0.11,15.23-0.04c5.04,0.07,10.09-0.27,15.14,0.21c2.21,0.21,4.45-0.14,6.67,0.22c1.31,0.21,2.67,0.08,4.01,0.23 c1.58,0.18,3.17,0.26,4.75,0.51c1.57,0.25,3.17,0.45,4.75,0.48c2.44,0.05,4.87,0.2,7.3,0.48c1.19,0.13,2.39,0.14,3.55,0.5 c0.29,0.09,0.56,0.02,0.5-0.41c-0.09-0.57-0.22-1.14-0.23-1.71c-0.04-1.29-0.04-2.58,0-3.87c0.02-0.71-0.14-1.29-0.66-1.79 c-0.4-0.4-0.36-0.81,0.18-1.13c0.43-0.25,0.46-0.56,0.47-0.97c0.13-5.16-0.29-10.34,0.24-15.5c0.07-0.65,0.04-1.29,0.2-1.97 c0.38-1.6,0.46-3.27,0.81-4.88c0.09-0.41,0.05-0.54-0.24-0.65c-0.31-0.12-0.65-0.2-0.99-0.25c-1.26-0.17-2.52-0.33-3.79-0.49 c-2.04-0.25-4.07-0.57-6.11-0.7c-1.71-0.11-3.41-0.32-5.12-0.48c-1.97-0.19-3.96-0.28-5.94-0.25c-3.07,0.05-6.15-0.28-9.21,0.21 c-1.33,0.22-2.68,0.34-4.03,0.49c-1.54,0.17-3.09,0.33-4.64,0.49c-0.81,0.08-1.63,0.13-2.43,0.26c-1.2,0.2-2.38,0.49-3.58,0.7 c-1.14,0.2-2.33,0.19-3.41,0.53c-1.22,0.39-2.48,0.42-3.7,0.67c-1.17,0.24-2.37,0.3-3.54,0.51c-1.53,0.28-3.04,0.64-4.56,0.96 c-0.93,0.19-1.88,0.31-2.79,0.58c-0.57,0.17-1.03,0.31-1.5-0.18c-0.11-0.12-0.37-0.18-0.53-0.14c-0.73,0.18-1.44,0.41-2.16,0.61 c-2.09,0.6-4.18,1.21-6.27,1.79c-2.57,0.7-5.15,1.38-7.73,2.06c-1.67,0.44-3.35,0.87-5.01,1.33c-1.95,0.54-3.89,1.12-5.83,1.69 c-1.62,0.48-3.23,0.96-4.84,1.45c-3.19,0.96-6.39,1.88-9.57,2.89c-3.49,1.1-6.98,2.2-10.43,3.43c-2.84,1.01-5.64,2.15-8.41,3.33 c-3.07,1.31-5.97,2.96-8.82,4.69c-0.84,0.51-1.72,0.96-2.49,1.56c-0.86,0.67-2.09-0.17-2.82,0.8c-0.68-0.48-1.58-0.04-2.29-0.61 c-0.76-0.61-1.62-1.12-2.5-1.54c-1-0.48-2.09-0.78-3.11-1.24c-1.7-0.76-3.37-1.59-5.07-2.37c-2.64-1.21-5.29-2.41-7.94-3.59 c-1.4-0.62-2.8-1.21-4.22-1.77c-1.63-0.64-3.28-1.22-4.92-1.83c-2.48-0.92-4.95-1.88-7.44-2.76c-2.39-0.85-4.8-1.64-7.22-2.42 c-2.56-0.83-5.11-1.7-7.71-2.4c-2.43-0.65-4.85-1.34-7.3-1.92c-0.72-0.17-1.65-0.82-2.37,0.18c-0.06,0.08-0.31,0.04-0.46,0.02 c-0.84-0.1-1.69-0.17-2.52-0.33c-1.75-0.34-3.48-0.76-5.22-1.11c-1.05-0.21-2.12-0.32-3.18-0.51c-1.65-0.3-3.29-0.62-4.93-0.95 c-1.08-0.21-2.15-0.48-3.23-0.66c-1.21-0.21-2.43-0.38-3.65-0.54c-0.85-0.11-1.72-0.1-2.56-0.26c-1.3-0.26-2.59-0.49-3.91-0.47 c-0.16,0-0.33,0.03-0.48,0c-1.33-0.3-2.67-0.5-4.03-0.48c-0.32,0-0.67,0.08-0.96-0.01c-1.56-0.51-3.21,0.01-4.76-0.47 c-4.84,0.15-9.69-0.25-14.53,0.22c-2.29,0.22-4.61-0.16-6.91,0.24c-1.08,0.19-2.19,0.11-3.29,0.2c-2.07,0.17-4.14,0.23-6.2,0.53 c-1.42,0.21-2.87,0.24-4.27,0.51c-2.03,0.4-4.04,0.95-6.05,1.43c-0.94,0.22-0.96,0.21-0.95,1.07c0.03,1.86,0.02,3.72,0.2,5.59 c0.28,3.05-0.17,6.14,0.25,9.21c0.23,1.68,0.06,3.39,0.21,5.1c0.2,2.26,0.21,4.55,0.52,6.81c0.18,1.32,0.22,2.67,0.24,4.01 c0.01,0.55,0.2,0.7,0.68,0.62c0.19-0.03,0.37-0.08,0.55-0.12c1.37-0.28,2.74-0.6,4.13-0.83c1.21-0.21,2.45-0.29,3.67-0.5 c1.65-0.28,3.27-0.69,4.92-0.94c1.95-0.3,3.91-0.51,5.86-0.73c1.62-0.18,3.25-0.41,4.88-0.47c1.88-0.07,3.74-0.28,5.6-0.48 c1.33-0.14,2.67-0.11,4.01-0.22c2.86-0.25,5.73,0.04,8.61-0.24c3.25-0.31,6.53,0.02,9.81-0.23c4.34-0.33,8.71,0.05,13.08-0.23 c2.93-0.19,5.89-0.24,8.85,0.15c1.92,0.25,3.87,0.01,5.83,0.22c2.1,0.22,4.22,0.24,6.33,0.52c1.36,0.18,2.75,0.18,4.13,0.26 c0.16,0.01,0.33-0.03,0.48,0.01c1.41,0.31,2.83,0.5,4.27,0.48c0.2,0,0.46-0.08,0.6,0.01c0.55,0.37,1.15,0.17,1.72,0.23 c0.57,0.07,1.14,0.19,1.71,0.23c1.3,0.1,2.61,0.05,3.88,0.29c0.86,0.16,1.75,0.02,2.55,0.25c0.67,0.19,1.32,0.13,1.97,0.2 c0.69,0.07,1.38,0.18,2.08,0.24c1.13,0.1,2.28,0.08,3.4,0.27c1.42,0.23,2.85,0.34,4.27,0.5c1.18,0.13,2.35,0.19,3.53,0.21 C131.25,160.1,131.38,160.25,131.75,160.33 M150.25,80.88c0-0.2,0.05-0.42-0.01-0.6c-0.44-1.47-0.89-2.93-1.36-4.39 c-1.28-3.97-2.59-7.94-4.19-11.8c-1.15-2.79-2.18-5.63-3.44-8.37c-1.15-2.51-2.49-4.94-3.83-7.36c-1.39-2.5-2.96-4.89-4.32-7.4 c-1.87-3.43-4.12-6.61-6.29-9.84c-1.35-2.01-2.88-3.89-4.34-5.82c-1.79-2.36-3.57-4.74-5.39-7.07c-1.13-1.44-2.33-2.83-3.5-4.24 c-1.25-1.5-2.5-2.99-3.76-4.49c-0.18-0.21-0.42-0.38-0.59-0.6c-1.55-2.07-3.5-3.72-5.52-5.29c-0.42-0.33-0.61-0.43-0.62,0.23 c0,0.17-0.2,0.33-0.22,0.51c-0.28,1.92-1.26,3.59-1.97,5.35c-0.51,1.28-1.23,2.48-1.92,3.68c-1.27,2.22-2.52,4.46-3.92,6.6 c-2.25,3.44-4.42,6.93-6.95,10.18c-1.41,1.82-2.73,3.72-4.16,5.53c-1.28,1.62-2.71,3.14-3.99,4.76c-1.13,1.44-2.21,2.94-3.21,4.47 c-1.46,2.24-2.79,4.57-4.25,6.82c-1.83,2.81-3.51,5.7-5.02,8.69c-1.29,2.56-2.47,5.18-3.68,7.78c-0.09,0.19-0.05,0.43-0.06,0.65 c0.22-0.02,0.44-0.01,0.65-0.05c0.92-0.2,1.85-0.39,2.77-0.62c1.09-0.27,2.2-0.37,3.3-0.51c1.38-0.18,2.76-0.46,4.16-0.44 c1.22,0.02,2.43,0.14,3.65,0.23c0.81,0.06,1.63,0.14,2.44,0.25c0.52,0.07,1.05,0.18,1.56,0.32c1.91,0.52,3.84,0.99,5.64,1.85 c1.95,0.93,3.95,1.79,5.82,2.88c1.7,1,3.33,2.14,4.92,3.35c2.23,1.7,4.47,3.38,6.47,5.35c2.27,2.23,4.54,4.46,6.52,6.96 c1.33,1.69,2.8,3.27,4.17,4.93c1.34,1.61,2.62,3.27,3.94,4.89c0.79,0.97,1.62,1.9,2.38,2.88c1.48,1.92,2.91,3.87,4.37,5.8 c1.53,2.03,3.16,3.99,4.59,6.08c2.35,3.44,4.62,6.94,6.82,10.47c1.63,2.61,3.04,5.36,4.67,7.97c1.84,2.93,3.44,5.98,5.03,9.04 c1.05,2.02,2.36,3.92,2.92,6.17c0.03,0.13,0.22,0.23,0.33,0.34c0.04-0.14,0.13-0.27,0.13-0.41c-0.12-3.27,0.14-6.54-0.19-9.82 c-0.29-2.97,0.12-5.98-0.27-8.97c-0.19-1.48,0-2.99-0.21-4.5c-0.28-2.07-0.27-4.2-0.28-6.3c-0.03-5.64-0.04-11.28,0-16.93 c0.04-6.05,0.15-12.1,0.24-18.16C150.26,81.63,150.33,81.32,150.25,80.88 M78.18,40.02c0.11-0.19,0.2-0.41,0.34-0.58 c1.7-2.04,3.45-4.04,5.11-6.11c1.13-1.4,2.18-2.88,3.25-4.33c0.9-1.23,1.76-2.5,2.67-3.73c0.53-0.71,0.52-0.89-0.28-1.33 c-0.16-0.09-0.33-0.17-0.5-0.24c-1.93-0.89-3.86-1.77-5.79-2.66c-1.69-0.78-3.38-1.56-5.08-2.33c-0.85-0.39-1.63-0.39-2.4,0.27 c-0.51,0.44-1.16,0.71-1.71,1.1c-1.59,1.13-3.18,2.27-4.73,3.45c-1.36,1.04-2.59,2.25-3.99,3.22c-2.83,1.96-5.34,4.29-7.91,6.54 c-2.38,2.08-4.59,4.35-6.84,6.56c-0.79,0.77-1.45,1.68-2.24,2.45c-2.68,2.64-5.41,5.23-8.09,7.88c-1.07,1.06-2.06,2.21-3.09,3.31 c-1.17,1.25-2.33,2.5-3.51,3.75c-1.65,1.74-3.31,3.46-4.95,5.2c-1.01,1.07-2.02,2.14-2.99,3.24c-1.58,1.79-3.16,3.6-4.7,5.43 c-1.01,1.19-1.85,2.5-2.53,3.9c-0.61,1.24-1.19,2.49-1.74,3.75c-0.35,0.82-0.65,1.67-0.91,2.52c-0.06,0.19-0.28,0.67,0.32,0.7 c1.65,0.08,3.28,0.4,4.9,0.71c1.62,0.31,3.28,0.4,4.89,0.77c1.66,0.38,3.37,0.33,5.03,0.69c0.49,0.11,1.01,0.09,1.52,0.12 c0.54,0.03,1.25,0.29,1.59,0.04c0.72-0.52,0.76,0.5,1.33,0.38c0.65-0.13,1.38,0.09,2.06,0.22c1.08,0.21,2.14,0.5,3.21,0.69 c1.5,0.28,3.03,0.44,4.52,0.77c1.5,0.32,2.96,0.9,4.47,1.15c2.55,0.41,4.97,1.27,7.47,1.85c2.23,0.52,4.42,1.19,6.62,1.81 c2.41,0.69,4.84,1.35,7.23,2.11c3.8,1.22,7.6,2.42,11.32,3.9c2.46,0.98,4.92,1.94,7.3,3.11c3.32,1.63,6.6,3.34,9.88,5.03 c1.46,0.75,2.93,1.49,4.37,2.3c2.98,1.67,5.94,3.36,8.9,5.08c1.4,0.81,2.79,1.65,4.14,2.55c2.34,1.56,4.67,3.16,6.96,4.79 c1.2,0.85,2.34,1.79,3.46,2.73c1.3,1.08,2.55,2.22,3.82,3.33c1.92,1.68,3.91,3.3,5.76,5.06c3,2.86,5.87,5.86,8.57,9.01 c0.1,0.12,0.28,0.17,0.42,0.25c-0.01-0.19,0.06-0.44-0.04-0.56c-0.74-0.88-1.15-1.94-1.71-2.92c-1.38-2.42-2.83-4.8-4.26-7.18 c-0.99-1.65-1.98-3.3-2.99-4.92c-1.16-1.86-2.42-3.66-3.53-5.55c-1.66-2.83-3.63-5.44-5.53-8.1c-1.05-1.46-2.1-2.93-3.19-4.36 c-1.27-1.66-2.59-3.29-3.9-4.91c-0.84-1.03-1.72-2.02-2.56-3.05c-1.21-1.51-2.38-3.05-3.6-4.55c-0.86-1.06-1.76-2.09-2.65-3.14 c-1.39-1.64-2.74-3.32-4.2-4.9c-1.53-1.65-3.18-3.2-4.77-4.8c-0.2-0.2-0.38-0.42-0.6-0.59c-1.65-1.26-3.28-2.56-4.98-3.75 c-1.89-1.33-3.78-2.69-5.8-3.8c-1.92-1.06-3.98-1.88-6.02-2.67c-1.18-0.46-2.45-0.72-3.7-0.98c-1.46-0.3-2.94-0.65-4.41-0.7 c-2.1-0.07-4.21,0.06-6.3,0.23c-1.24,0.1-2.47,0.43-3.69,0.71c-1.25,0.29-2.47,0.65-3.71,0.95c-0.52,0.13-1.06,0.2-1.59,0.24 c-0.43,0.03-0.65-0.24-0.61-0.67c0.02-0.26,0.04-0.55,0.14-0.79c1.04-2.43,2.07-4.86,3.17-7.27c0.52-1.16,1.17-2.26,1.77-3.38 c0.97-1.82,1.9-3.66,2.94-5.43c0.88-1.5,1.97-2.88,2.85-4.39C73.95,46.05,75.95,43.06,78.18,40.02 M148.44,148.96 c0.58,0.3,1.17,0.61,1.75,0.91c-0.3-0.66-0.49-1.41-0.92-1.98c-1.61-2.17-3.25-4.32-4.95-6.41c-0.98-1.2-2.06-2.32-3.16-3.41 c-3.02-2.99-6.08-5.94-9.13-8.89c-0.68-0.66-1.39-1.28-2.12-1.88c-1.68-1.38-3.36-2.76-5.07-4.1c-1.51-1.19-3.02-2.39-4.61-3.48 c-2.15-1.49-4.34-2.93-6.56-4.29c-2.63-1.61-5.31-3.13-7.98-4.66c-1.2-0.69-2.45-1.28-3.67-1.94c-2.8-1.52-5.56-3.12-8.38-4.58 c-2.48-1.28-5.02-2.46-7.57-3.61c-1.97-0.88-3.97-1.71-6-2.44c-2.81-1.01-5.65-1.93-8.48-2.87c-1.81-0.6-3.62-1.21-5.45-1.73 c-2.24-0.64-4.51-1.18-6.76-1.78c-1.71-0.45-3.4-0.93-5.11-1.37c-2.08-0.53-4.17-1.05-6.26-1.53c-2.1-0.48-4.21-0.92-6.32-1.38 c-1.07-0.23-2.14-0.48-3.23-0.67c-1.21-0.21-2.43-0.36-3.65-0.54c-0.5-0.07-0.92,0.06-1.25,0.49c-0.43,0.56-0.87,1.11-1.37,1.61 c-2.24,2.26-4.5,4.51-6.75,6.76c-0.23,0.23-0.46,0.45-0.68,0.69c-0.83,0.9-1.62,1.85-2.49,2.71c-1.27,1.26-2.61,2.46-3.9,3.69 c-0.09,0.08-0.1,0.27-0.1,0.41c0,0.03,0.2,0.07,0.31,0.09c1.1,0.16,2.22,0.26,3.3,0.5c1.62,0.35,3.21,0.84,4.82,1.18 c2.49,0.53,5,0.95,7.5,1.47c2.15,0.45,4.28,0.94,6.41,1.45c1.72,0.41,3.44,0.84,5.15,1.3c2.25,0.6,4.49,1.23,6.73,1.84 c2.21,0.61,4.42,1.21,6.62,1.83c1.48,0.42,2.94,0.88,4.41,1.31c2.16,0.62,4.34,1.2,6.49,1.86c1.75,0.54,3.46,1.19,5.19,1.77 c3.12,1.04,6.24,2.04,9.36,3.1c2.08,0.71,4.12,1.54,6.22,2.21c3.27,1.05,6.41,2.42,9.6,3.69c1.49,0.59,2.94,1.28,4.42,1.88 c2.59,1.04,5.21,2.02,7.79,3.08c2.27,0.93,4.52,1.92,6.78,2.9c2.84,1.23,5.68,2.45,8.5,3.71c1.33,0.59,2.57,1.42,3.93,1.9 c2.35,0.82,4.42,2.18,6.61,3.31c2.23,1.15,4.38,2.47,6.55,3.74C146.07,147.45,147.19,148.15,148.44,148.96 M181.93,133.85 c-1.54,1.05-3.09,2.09-4.61,3.17c-1.72,1.22-3.41,2.48-5.11,3.72c-1.3,0.95-2.6,1.9-3.89,2.86c-0.1,0.08-0.12,0.27-0.18,0.4 c0.11-0.03,0.23-0.06,0.34-0.1c2.96-1.13,5.89-2.33,8.87-3.39c2.5-0.89,5.04-1.64,7.58-2.43c2.89-0.9,5.79-1.78,8.69-2.66 c1.57-0.48,3.14-1,4.72-1.44c2.24-0.62,4.51-1.16,6.76-1.78c2.13-0.59,4.24-1.26,6.37-1.85c3.04-0.83,6.1-1.61,9.15-2.43 c1.78-0.47,3.55-0.97,5.32-1.45c1.81-0.49,3.62-1,5.45-1.44c1.51-0.37,3.06-0.56,4.55-1c2.65-0.77,5.35-1.29,8.03-1.92 c1.92-0.45,3.86-0.79,5.78-1.24c2-0.47,4.03-0.74,6.04-1.15c1.17-0.24,2.37-0.3,3.54-0.51c1.65-0.29,3.27-0.67,4.92-0.95 c1.71-0.29,3.42-0.51,5.14-0.73c1.46-0.19,2.93-0.36,4.39-0.48c1.57-0.12,3.16-0.26,4.73-0.23c2.91,0.06,5.82-0.22,8.73,0.19 c1.42,0.2,2.9,0.04,4.35,0.03c0.11,0,0.22-0.04,0.33-0.07c-0.08-0.11-0.15-0.24-0.24-0.34c-0.42-0.43-0.91-0.81-1.27-1.29 c-1.48-2-3.2-3.77-5.12-5.35c-0.48-0.39-0.96-0.79-1.45-1.17c-1.03-0.81-2.08-1.6-3.1-2.43c-0.43-0.35-0.75-0.85-1.21-1.14 c-0.22-0.14-0.63-0.66-0.98-0.06c-0.93,0-1.91-0.2-2.77,0.05c-1.31,0.37-2.62,0.08-3.93,0.39c-1.32,0.31-2.76,0.1-4.11,0.33 c-0.86,0.15-1.71,0.12-2.56,0.21c-1.72,0.2-3.42,0.5-5.14,0.7c-1.7,0.2-3.41,0.33-5.12,0.49c-0.73,0.07-1.47,0.13-2.2,0.25 c-1.39,0.22-2.78,0.49-4.17,0.71c-1.18,0.19-2.37,0.28-3.54,0.5c-1.49,0.28-2.96,0.63-4.44,0.96c-1.33,0.29-2.67,0.55-3.99,0.88 c-1.64,0.4-3.27,0.85-4.9,1.3c-2.49,0.69-5,1.33-7.46,2.12c-5.58,1.78-11.13,3.61-16.57,5.81c-2.73,1.11-5.46,2.21-8.11,3.46 c-3.11,1.47-6.1,3.17-9.13,4.81c-1.16,0.63-2.29,1.32-3.38,2.06C185.34,131.36,183.7,132.56,181.93,133.85 M21.96,119.22 c1.14,0.08,2.27,0.16,3.41,0.24c1.22,0.09,2.43,0.05,3.65,0.18c1.98,0.21,3.97,0.32,5.96,0.51c1.47,0.14,2.93,0.29,4.39,0.5 c1.62,0.23,3.25,0.34,4.88,0.5c0.77,0.08,1.55,0.13,2.32,0.25c1.47,0.22,2.94,0.51,4.42,0.71c0.97,0.13,1.98,0.06,2.91,0.29 c0.71,0.17,1.42,0.05,2.08,0.23c1.61,0.44,3.29,0.34,4.91,0.68c0.95,0.2,1.95,0.17,2.92,0.27c0.65,0.07,1.3,0.15,1.95,0.26 c1.32,0.22,2.63,0.48,3.94,0.7c1.1,0.18,2.21,0.3,3.3,0.5c1.49,0.28,2.96,0.63,4.44,0.95c1,0.22,1.99,0.45,2.99,0.66 c1.59,0.35,3.18,0.7,4.77,1.02c1.34,0.27,2.71,0.45,4.03,0.79c2.95,0.75,5.88,1.56,8.81,2.37c2.75,0.76,5.49,1.52,8.22,2.33 c1.86,0.55,3.71,1.17,5.55,1.78c2.62,0.87,5.25,1.72,7.84,2.67c2.24,0.82,4.4,1.86,6.65,2.62c3.08,1.05,5.98,2.5,8.95,3.8 c1.85,0.81,3.6,1.81,5.41,2.71c0.33,0.16,0.72,0.21,1.09,0.28c0.07,0.01,0.17-0.09,0.26-0.13c-0.07-0.03-0.14-0.06-0.2-0.1 c-0.79-0.42-1.58-0.85-2.38-1.27c-2.38-1.26-4.75-2.53-7.15-3.75c-1.53-0.78-3.05-1.58-4.65-2.21c-2.74-1.08-5.37-2.4-8.09-3.54 c-1.92-0.8-3.8-1.73-5.73-2.52c-2.34-0.96-4.72-1.83-7.07-2.78c-1.42-0.57-2.8-1.22-4.22-1.78c-3.01-1.19-6.03-2.36-9.07-3.51 c-2.58-0.97-5.17-1.92-7.78-2.82c-4.69-1.62-9.39-3.22-14.1-4.78c-2.38-0.79-4.78-1.51-7.18-2.23c-1.97-0.59-3.96-1.13-5.95-1.7 c-1.98-0.56-3.96-1.16-5.95-1.68c-2.04-0.53-4.12-0.92-6.15-1.51c-3.23-0.93-6.47-1.78-9.77-2.38c-2.23-0.41-4.44-0.94-6.66-1.44 c-2.02-0.46-4.03-0.98-6.05-1.43c-0.33-0.07-0.88-0.01-1.04,0.21c-1.34,1.73-2.58,3.52-3.9,5.26c-1.35,1.79-2.76,3.54-4.14,5.3 c-0.48,0.61-0.99,1.19-1.41,1.84c-0.26,0.4-1.07,0.74-0.68,1.21c0.24,0.3,1.06,0.19,1.61,0.17 C16.78,119.39,19.25,119.3,21.96,119.22 M50.25,161.78c0.13-0.08,0.25-0.22,0.38-0.23c1.95-0.17,3.89-0.35,5.84-0.48 c1.22-0.08,2.43,0.02,3.65-0.22c1.15-0.22,2.34-0.03,3.53-0.23c1.35-0.22,2.75-0.05,4.13-0.26c1.36-0.21,2.74,0.01,4.13-0.23 c1.47-0.25,2.99-0.01,4.49-0.25c1.47-0.24,2.99-0.07,4.49-0.22c2.29-0.23,4.6-0.18,6.91-0.25c4.83-0.15,9.67-0.04,14.51-0.05 c0.33,0,0.66-0.09,1-0.13c-0.36-0.12-0.71-0.24-1.07-0.34c-0.15-0.04-0.32,0-0.48-0.01c-0.98-0.06-1.95-0.09-2.93-0.18 c-2.02-0.19-4.06-0.3-6.08-0.53c-1.05-0.12-2.11-0.08-3.17-0.2c-1.84-0.21-3.72-0.23-5.58-0.24c-4.28-0.03-8.55-0.19-12.84,0.15 c-4.06,0.32-8.15-0.12-12.23,0.25c-3.29,0.3-6.61-0.02-9.93,0.22c-3.47,0.24-6.97,0.08-10.44,0.53c-1.44,0.19-2.91,0.18-4.37,0.26 c-0.08,0-0.16-0.01-0.24,0c-1.14,0.16-2.28,0.35-3.43,0.47c-1.05,0.12-2.11,0.16-3.16,0.25c-0.73,0.06-1.47,0.13-2.2,0.24 c-1.43,0.22-2.86,0.48-4.29,0.72c-1.1,0.18-2.2,0.31-3.3,0.51c-1.12,0.2-2.22,0.47-3.34,0.7c-1.12,0.23-2.25,0.39-3.35,0.67 c-1.8,0.46-2.84-0.3-2.85-2.16c0-0.64,0.01-1.29-0.01-1.93c-0.01-0.15-0.14-0.3-0.22-0.44c-0.1,0.13-0.21,0.26-0.29,0.41 c-0.32,0.59-0.62,1.19-0.93,1.79c-1.09,2.09-2.17,4.18-3.27,6.26c-0.24,0.46-0.13,0.77,0.38,0.72c1.15-0.12,2.28-0.32,3.43-0.47 c1.42-0.18,2.85-0.28,4.27-0.5c1.85-0.28,3.68-0.68,5.53-0.94c1.54-0.22,3.09-0.33,4.63-0.5c0.73-0.08,1.49-0.07,2.19-0.26 c1.13-0.32,2.29-0.27,3.44-0.44c1.08-0.17,2.19-0.14,3.28-0.27c1.72-0.21,3.42-0.5,5.14-0.71c1.13-0.13,2.27-0.17,3.4-0.25 c0.12-0.01,0.25,0.02,0.35-0.02c0.95-0.37,1.97-0.3,2.95-0.45c1.04-0.15,2.12-0.09,3.16-0.28 C46.99,161.97,48.49,161.76,50.25,161.78 M19.06,125.02c1.49-0.3,3.02-0.14,4.52-0.45c1.14-0.24,2.33,0,3.53-0.23 c1.42-0.27,2.9-0.23,4.36-0.28c3.71-0.14,7.42,0.19,11.14-0.21c1.95-0.21,3.94-0.06,5.92-0.03c1.14,0.02,2.27,0.16,3.4,0.22 c0.12,0.01,0.24-0.09,0.36-0.14c-0.11-0.03-0.21-0.07-0.33-0.09c-1.1-0.16-2.2-0.41-3.3-0.46c-1.44-0.07-2.85-0.26-4.27-0.49 c-1.82-0.29-3.66-0.51-5.5-0.73c-1.58-0.19-3.16-0.4-4.75-0.47c-1.84-0.08-3.65-0.29-5.48-0.48c-1.65-0.18-3.31-0.23-4.97-0.25 c-2.91-0.03-5.81,0.02-8.72,0.17c-1.41,0.08-2.49,0.24-3.23,1.56c-0.78,1.38-1.69,2.68-2.54,4.02c-0.04,0.07-0.05,0.17-0.07,0.25 c0.08,0.01,0.18,0.05,0.23,0.02c1.1-0.67,2.4-0.64,3.6-0.92C14.87,125.56,16.85,125.34,19.06,125.02 M268.38,121.15 c2.59,0.08,5.17,0.16,7.76,0.24c0.12,0,0.25-0.03,0.36,0c1.36,0.4,2.77,0.28,4.15,0.47c1.09,0.14,2.19,0.13,3.28,0.27 c1.56,0.2,3.1,0.55,4.66,0.69c1.23,0.11,2.46,0.2,3.67,0.5c0.13,0.03,0.28-0.07,0.43-0.11c-0.06-0.14-0.09-0.3-0.18-0.41 c-0.21-0.24-0.49-0.43-0.67-0.69c-0.7-0.99-1.36-2.01-2.07-3.01c-0.12-0.17-0.37-0.33-0.57-0.35c-1.01-0.11-2.03-0.25-3.04-0.24 c-3.79,0.04-7.59-0.19-11.38,0.22c-1.17,0.13-2.37,0.06-3.52,0.29c-0.7,0.14-1.39,0.12-2.08,0.21c-1.4,0.2-2.78,0.49-4.17,0.71 c-1.26,0.19-2.53,0.3-3.79,0.5c-1.39,0.21-2.78,0.49-4.17,0.71c-0.65,0.11-1.33,0.07-1.95,0.26c-1.97,0.61-4.04,0.68-6.03,1.19 c-0.92,0.23-1.86,0.38-2.78,0.59c-0.18,0.04-0.33,0.16-0.5,0.25c0.17,0.05,0.35,0.14,0.51,0.13c0.57-0.06,1.16-0.09,1.71-0.25 c1.33-0.38,2.68-0.61,4.05-0.72c0.77-0.06,1.54-0.15,2.31-0.26c0.91-0.13,1.8-0.33,2.71-0.45c0.89-0.12,1.79-0.11,2.68-0.26 c1.58-0.27,3.16-0.45,4.76-0.47C265.73,121.14,266.93,121.15,268.38,121.15 M277.09,158.15c-0.81-0.08-1.62-0.17-2.44-0.24 c-1.13-0.09-2.31-0.01-3.4-0.28c-1.62-0.41-3.27-0.23-4.89-0.38c-3.33-0.31-6.7-0.23-10.05-0.31c-0.16,0-0.38,0.07-0.47-0.01 c-0.62-0.49-1.32-0.11-1.97-0.22c-0.11-0.02-0.24,0.12-0.36,0.18c0.13,0.1,0.25,0.27,0.38,0.28c1.1,0.05,2.2,0.15,3.29,0.2 c2.52,0.12,5.03,0.24,7.54,0.5c1.54,0.16,3.09,0.26,4.63,0.5c1.53,0.24,3.09,0.34,4.63,0.5c0.69,0.07,1.39,0.13,2.08,0.25 c1.27,0.22,2.53,0.52,3.81,0.71c1.5,0.21,3.03,0.24,4.51,0.54c0.7,0.14,1.41,0.07,2.08,0.22c1.74,0.38,3.51,0.5,5.27,0.7 c0.28,0.03,0.57-0.04,0.84,0.02c1.45,0.31,2.91,0.49,4.4,0.47c0.58-0.01,0.15-0.23,0.07-0.38c-0.35-0.66-0.72-1.31-1.03-1.99 c-0.73-1.59-1.83-3.01-2.16-4.79c-0.02-0.12-0.22-0.21-0.33-0.32c-0.04,0.11-0.1,0.21-0.1,0.32c-0.01,0.28-0.02,0.57,0,0.85 c0.07,0.93,0.18,1.87,0.23,2.8c0.03,0.49-0.55,1.32-0.96,1.33c-1.2,0.02-2.51,0.26-3.57-0.14c-1.61-0.61-3.25-0.51-4.87-0.78 c-1.39-0.23-2.83,0.07-4.25-0.26C279.14,158.22,278.23,158.23,277.09,158.15 M188.34,159.12c0.29-0.08,0.57-0.2,0.87-0.23 c0.97-0.1,1.94-0.19,2.92-0.24c1.14-0.06,2.26-0.04,3.41-0.2c1.37-0.19,2.78-0.03,4.16-0.26c0.74-0.12,1.53,0.05,2.29-0.04 c0.66-0.08,1.34-0.13,2-0.18c2.54-0.18,5.08-0.21,7.62-0.28c0.6-0.02,1.21,0,1.81-0.01c0.07,0,0.18-0.15,0.18-0.23 c0-0.08-0.1-0.22-0.18-0.23c-0.24-0.03-0.48-0.02-0.72-0.01c-2.1,0.08-4.2,0.15-6.3,0.25c-1.54,0.07-3.07-0.08-4.62,0.19 c-1.34,0.24-2.75,0-4.12,0.27c-0.91,0.18-1.87,0.14-2.8,0.2c-2.23,0.15-4.46,0.28-6.68,0.54c-1.66,0.19-3.33,0.32-4.99,0.5 c-0.11,0.01-0.2,0.16-0.3,0.25c0.11,0.08,0.24,0.23,0.33,0.21C184.83,159.27,186.46,159.11,188.34,159.12z"/><path d="M166.69,150.65c2.66-0.89,5.19-1.78,7.73-2.66c2.26-0.78,4.51-1.6,6.79-2.28c2.27-0.68,4.57-1.23,6.86-1.83 c2.4-0.63,4.8-1.27,7.21-1.86c1.58-0.39,3.18-0.67,4.77-1.05c2.39-0.57,4.8-1.01,7.17-1.66c1.72-0.47,3.52-0.65,5.27-1 c1.81-0.37,3.61-0.83,5.43-1.19c1.46-0.29,2.94-0.48,4.41-0.74c1.68-0.3,3.36-0.67,5.04-0.95c1.22-0.21,2.45-0.3,3.67-0.5 c1.28-0.21,2.54-0.5,3.81-0.71c0.77-0.13,1.55-0.13,2.32-0.26c1.55-0.27,3.13-0.28,4.67-0.69c0.74-0.2,1.53-0.02,2.32-0.22 c0.97-0.25,2.02-0.19,3.03-0.29c0.53-0.05,1.06-0.15,1.59-0.24c0.49-0.08,1.04,0.23,1.48-0.23c0.04-0.04,0.16,0,0.24-0.01 c1.26-0.08,2.54-0.04,3.76-0.28c1.18-0.22,2.41,0.01,3.56-0.45c0.07-0.03,0.16,0,0.24,0c1.5-0.08,3-0.15,4.49-0.25 c0.69-0.05,1.38-0.16,2.08-0.23c0.65-0.07,1.34,0.17,1.96-0.24c0.06-0.04,0.16,0,0.24-0.01c1.54-0.08,3.08-0.12,4.61-0.25 c1.03-0.09,2.04-0.31,3.07-0.47c0.2-0.03,0.43-0.07,0.6,0.01c0.25,0.12,0.44,0.33,0.66,0.51c-0.2,0.15-0.4,0.4-0.62,0.43 c-0.97,0.12-1.95,0.14-2.92,0.27c-1.98,0.26-3.97,0.37-5.96,0.51c-1.87,0.13-3.73,0.35-5.6,0.48c-1.87,0.13-3.73,0.35-5.6,0.49 c-1.5,0.11-3.02,0.29-4.51,0.49c-1.75,0.23-3.53,0.26-5.27,0.66c-0.9,0.21-1.87,0.15-2.8,0.27c-0.99,0.13-1.96,0.33-2.95,0.47 c-0.73,0.11-1.47,0.14-2.2,0.25c-1.51,0.23-3.04,0.35-4.54,0.7c-1.24,0.28-2.53,0.31-3.78,0.52c-1.61,0.27-3.21,0.61-4.82,0.9 c-0.64,0.12-1.29,0.18-1.93,0.3c-1.53,0.29-3.06,0.6-4.59,0.9c-0.97,0.19-1.95,0.35-2.91,0.55c-1.78,0.37-3.55,0.78-5.33,1.15 c-1.34,0.28-2.69,0.51-4.03,0.78c-1.15,0.23-2.3,0.47-3.45,0.73c-1.36,0.31-2.72,0.63-4.07,0.97c-2.85,0.71-5.68,1.5-8.55,2.13 c-2.54,0.55-5.04,1.24-7.52,2c-3.71,1.14-7.42,2.31-11.07,3.64c-2.45,0.89-4.91,1.78-7.37,2.64c-1.4,0.49-2.77,1.09-4.13,1.69 c-0.58,0.26-1.09,0.67-1.65,0.98c-0.16,0.09-0.41,0.13-0.57,0.07c-0.46-0.19-0.02-0.57,0.03-0.61c0.39-0.35,0.8-0.71,1.27-0.92 c1.91-0.84,3.84-1.63,5.76-2.43C164.9,151.28,165.74,150.98,166.69,150.65z"/><path d="M70.69,147.03c4.31,0,8.5-0.03,12.69,0.01c2.06,0.02,4.14,0.02,6.18,0.28c1.23,0.16,2.44,0.11,3.65,0.19 c2.19,0.15,4.38,0.3,6.57,0.49c1.63,0.14,3.26,0.28,4.88,0.49c1.62,0.21,3.24,0.43,4.88,0.49c1.31,0.06,2.61,0.28,3.91,0.47 c1.55,0.22,3.1,0.5,4.66,0.71c0.93,0.13,1.87,0.14,2.8,0.26c0.87,0.11,1.73,0.28,2.59,0.45c0.6,0.12,1.21,0.07,1.83,0.22 c1.34,0.32,2.77,0.3,4.14,0.55c2.25,0.41,4.55,0.52,6.76,1.19c0.14,0.04,0.36,0,0.44,0.09c0.13,0.15,0.27,0.43,0.21,0.56 c-0.07,0.15-0.38,0.29-0.55,0.27c-1.36-0.2-2.71-0.44-4.07-0.67c-1.84-0.32-3.68-0.68-5.52-0.96c-1.46-0.22-2.93-0.3-4.39-0.5 c-1.48-0.2-2.94-0.49-4.42-0.71c-0.73-0.11-1.46-0.17-2.2-0.25c-1.71-0.17-3.42-0.27-5.12-0.5c-1.58-0.21-3.17-0.36-4.75-0.5 c-1.5-0.14-3-0.35-4.51-0.48c-2.11-0.18-4.22-0.32-6.32-0.52c-1.06-0.1-2.13-0.03-3.17-0.2c-1.74-0.28-3.5-0.03-5.21-0.28 c-1.55-0.22-3.08-0.15-4.62-0.18c-4.92-0.11-9.86-0.41-14.76-0.19c-5.13,0.24-10.26-0.1-15.37,0.23c-2.71,0.17-5.43-0.06-8.12,0.24 c-1.95,0.22-3.91-0.03-5.82,0.23c-1.47,0.2-2.94,0.02-4.37,0.24c-1.26,0.19-2.54,0.04-3.77,0.25c-0.98,0.17-1.97,0.05-2.92,0.22 c-1.83,0.32-3.69,0.25-5.51,0.67c-1.02,0.23-2.1,0.18-3.16,0.27c-0.38,0.03-0.69-0.14-0.68-0.47c0.01-0.18,0.4-0.46,0.64-0.48 c1.17-0.13,2.35-0.14,3.52-0.27c1.76-0.2,3.51-0.47,5.26-0.71c0.04-0.01,0.08,0,0.12,0c1.46-0.08,2.91-0.18,4.37-0.24 c2.18-0.09,4.39,0,6.54-0.29c1.95-0.27,3.91,0.04,5.83-0.22c3.07-0.41,6.15,0.01,9.21-0.24C58.87,146.77,64.72,147.18,70.69,147.03 z"/><path d="M84.95,141.22c-1.91-0.16-3.7-0.26-5.48-0.5c-1.62-0.22-3.27-0.27-4.87-0.53c-1.39-0.23-2.82,0.14-4.16-0.41 c-0.07-0.03-0.16,0-0.24,0c-1.82-0.08-3.65-0.06-5.46-0.27c-1.5-0.18-3.03-0.02-4.49-0.26c-1.39-0.23-2.78,0-4.14-0.21 c-1.98-0.31-3.99,0-5.94-0.27c-2.11-0.29-4.21-0.11-6.31-0.19c-2.99-0.11-5.98-0.33-8.96-0.2c-3.19,0.13-6.38,0.13-9.57,0.22 c-1.91,0.05-3.82,0.29-5.72,0.47c-0.41,0.04-0.82,0.18-1.23,0.22c-0.13,0.01-0.36-0.14-0.38-0.25c-0.03-0.13,0.09-0.34,0.2-0.45 c0.13-0.12,0.32-0.22,0.5-0.24c0.85-0.1,1.7-0.19,2.56-0.25c1.5-0.1,3.02-0.02,4.49-0.29c1.47-0.27,2.92-0.18,4.38-0.19 c5.44-0.03,10.88-0.11,16.32,0.03c2.42,0.06,4.86,0.02,7.27,0.25c1.59,0.16,3.18-0.03,4.74,0.22c1.43,0.23,2.86,0.02,4.25,0.25 c1.19,0.19,2.36,0.09,3.53,0.21c2.23,0.24,4.46,0.37,6.69,0.51c1.75,0.11,3.48,0.39,5.24,0.47c1.75,0.07,3.5,0.24,5.24,0.48 c1.46,0.2,2.94,0.31,4.39,0.51c1.71,0.24,3.46,0.23,5.15,0.66c0.82,0.21,1.7,0.18,2.55,0.26c1.07,0.1,2.13,0.21,3.19,0.46 c0.67,0.16,1.37,0.08,2.08,0.23c1.4,0.3,2.85,0.32,4.26,0.54c1.77,0.27,3.52,0.66,5.28,0.95c1.26,0.21,2.53,0.29,3.79,0.5 c1.61,0.27,3.21,0.62,4.81,0.92c0.6,0.11,1.21,0.17,1.82,0.28c1.27,0.23,2.54,0.5,3.81,0.72c1.14,0.19,2.29,0.31,3.42,0.5 c0.97,0.16,1.94,0.36,2.91,0.56c0.63,0.13,1.26,0.27,1.89,0.4c0.12,0.02,0.28-0.05,0.36,0.01c0.24,0.18,0.66,0.43,0.64,0.61 c-0.04,0.31-0.42,0.41-0.78,0.35c-1.06-0.18-2.12-0.32-3.17-0.52c-1.12-0.21-2.22-0.47-3.34-0.69c-1.64-0.33-3.27-0.67-4.92-0.96 c-1.13-0.2-2.29-0.3-3.42-0.5c-1.68-0.29-3.36-0.66-5.04-0.95c-1.21-0.21-2.45-0.3-3.67-0.5c-1.84-0.3-3.68-0.65-5.52-0.96 c-0.69-0.11-1.38-0.17-2.08-0.25c-1.54-0.16-3.1-0.26-4.63-0.5c-1.99-0.31-3.98-0.59-5.99-0.72c-1.47-0.1-2.93-0.3-4.39-0.47 C86.22,141.4,85.65,141.3,84.95,141.22z"/><path d="M23.05,134.21c-2.18,0.08-4.26,0.05-6.3,0.29c-1.06,0.13-2.11,0.15-3.17,0.19c-0.24,0.01-0.46,0.04-0.46-0.35 c0-0.35,0.16-0.37,0.43-0.38c1.22-0.07,2.46-0.02,3.64-0.27c1.55-0.32,3.09-0.04,4.62-0.23c3.95-0.48,7.91-0.15,11.87-0.21 c3.99-0.07,7.98-0.15,11.96,0.04c2.31,0.11,4.62,0.02,6.91,0.25c1.3,0.13,2.6,0.1,3.89,0.19c2.19,0.15,4.38,0.3,6.57,0.49 c1.59,0.13,3.17,0.29,4.75,0.49c1.64,0.21,3.26,0.49,4.9,0.71c0.93,0.12,1.87,0.14,2.8,0.26c0.87,0.11,1.72,0.31,2.59,0.46 c0.65,0.11,1.3,0.18,1.95,0.26c1.42,0.17,2.85,0.28,4.27,0.5c1.85,0.28,3.68,0.66,5.52,0.95c1.34,0.21,2.69,0.3,4.03,0.5 c1.2,0.19,2.38,0.48,3.58,0.69c0.68,0.12,1.38,0.15,2.07,0.27c1.24,0.21,2.47,0.46,3.71,0.67c0.68,0.12,1.37,0.17,2.06,0.3 c1.57,0.29,3.13,0.61,4.7,0.9c1.05,0.2,2.11,0.35,3.16,0.55c1.45,0.28,2.89,0.62,4.34,0.9c1.09,0.21,2.19,0.37,3.28,0.55 c0.12,0.02,0.27-0.04,0.36,0.01c0.3,0.17,0.57,0.37,0.86,0.56c-0.28,0.13-0.57,0.39-0.85,0.38c-0.73-0.03-1.46-0.14-2.18-0.27 c-1.12-0.2-2.23-0.45-3.34-0.68c-1.93-0.4-3.86-0.81-5.79-1.19c-1.05-0.2-2.12-0.32-3.18-0.51c-1.6-0.3-3.2-0.65-4.81-0.94 c-1.09-0.2-2.2-0.33-3.3-0.51c-1.43-0.23-2.86-0.5-4.29-0.72c-1.26-0.19-2.53-0.3-3.79-0.5c-1.32-0.21-2.62-0.49-3.93-0.71 c-0.65-0.11-1.3-0.17-1.95-0.25c-1.99-0.24-3.99-0.48-5.98-0.73c-1.83-0.23-3.67-0.44-5.5-0.74c-1.38-0.23-2.76-0.35-4.15-0.5 c-1.54-0.17-3.09-0.34-4.63-0.48c-1.99-0.19-3.98-0.32-5.96-0.51c-1.14-0.11-2.29-0.01-3.41-0.2c-1.98-0.33-3.99,0-5.94-0.27 c-2.07-0.28-4.13-0.17-6.19-0.18C36.22,134.18,29.69,134.21,23.05,134.21z"/><path d="M229.09,143.88c2.59-0.27,5.06-0.35,7.53-0.54c1.3-0.1,2.61,0,3.89-0.2c1.98-0.31,3.99,0,5.94-0.27 c2.11-0.29,4.21-0.17,6.31-0.18c7.74-0.04,15.47-0.01,23.21-0.02c1.27,0,2.52-0.18,3.72-0.64c0.19-0.07,0.43,0.01,0.65,0.03 c-0.05,0.22-0.04,0.47-0.15,0.65c-0.41,0.64-1.16,0.61-1.76,0.67c-4.15,0.44-8.32,0.45-12.46,0.2c-3.32-0.2-6.64-0.25-9.93-0.11 c-3.23,0.14-6.47-0.02-9.69,0.24c-1.75,0.14-3.5-0.02-5.22,0.22c-1.43,0.2-2.86,0.02-4.25,0.25c-1.23,0.2-2.45,0.07-3.65,0.22 c-1.94,0.23-3.89,0.4-5.84,0.48c-1.63,0.07-3.25,0.3-4.88,0.47c-1.47,0.15-2.93,0.32-4.39,0.48c-1.34,0.15-2.69,0.29-4.03,0.49 c-1.36,0.2-2.7,0.49-4.05,0.71c-0.69,0.11-1.38,0.15-2.07,0.25c-1.48,0.21-2.97,0.28-4.42,0.7c-0.7,0.2-1.46,0.15-2.19,0.27 c-1.28,0.2-2.56,0.38-3.82,0.69c-1.07,0.27-2.2,0.31-3.3,0.52c-1.56,0.29-3.11,0.74-4.68,0.92c-1.04,0.12-2.05,0.32-3.06,0.53 c-2.22,0.47-4.43,0.96-6.64,1.48c-0.72,0.17-1.41,0.48-2.13,0.67c-0.18,0.05-0.41-0.1-0.62-0.15c0.13-0.19,0.21-0.44,0.38-0.56 c0.31-0.2,0.65-0.39,1.01-0.47c2.01-0.5,4.03-0.97,6.04-1.46c1.28-0.31,2.54-0.7,3.83-0.95c1.58-0.3,3.19-0.47,4.77-0.75 c1.08-0.19,2.13-0.52,3.21-0.7c1.25-0.21,2.52-0.33,3.79-0.5c1.14-0.15,2.29-0.3,3.42-0.49c0.75-0.12,1.47-0.37,2.22-0.47 c1.99-0.27,3.99-0.45,5.98-0.75c1.95-0.29,3.89-0.62,5.86-0.75c1.38-0.1,2.76-0.34,4.15-0.47c1.75-0.17,3.48-0.44,5.24-0.46 C227.66,144.1,228.31,143.96,229.09,143.88z"/><path d="M209.56,151.68c-0.2,0.1-0.35,0.17-0.49,0.18c-1.7,0.09-3.4,0.13-5.1,0.26c-1.67,0.12-3.34,0.27-5,0.49 c-1.24,0.17-2.46,0.48-3.69,0.7c-0.19,0.03-0.45-0.09-0.62-0.22c-0.21-0.16-0.3-0.39,0.09-0.49c0.58-0.16,1.15-0.37,1.74-0.47 c0.72-0.13,1.48-0.11,2.19-0.27c1.82-0.39,3.7-0.24,5.51-0.71c0.08-0.02,0.16,0,0.24,0c1.58-0.08,3.16-0.1,4.73-0.25 c2.79-0.27,5.59-0.36,8.38-0.54c1.3-0.08,2.61-0.03,3.89-0.19c2.14-0.27,4.31-0.03,6.42-0.28c2-0.24,3.98-0.02,5.95-0.2 c4.36-0.38,8.73,0,13.08-0.29c2.92-0.2,5.83-0.26,8.73-0.13c4.81,0.21,9.61,0.02,14.41,0.26c2.19,0.11,4.39-0.06,6.55,0.22 c1.95,0.25,3.89,0.1,5.83,0.21c0.28,0.02,0.56,0.2,0.83,0.31c-0.29,0.21-0.59,0.62-0.87,0.61c-1.46-0.06-2.94,0.29-4.38-0.2 c-0.29-0.1-0.64-0.01-0.96-0.01c-4.64-0.08-9.29,0.01-13.92-0.28c-6.18-0.38-12.35-0.25-18.52-0.12c-3.39,0.07-6.8-0.1-10.17,0.21 c-2.19,0.2-4.39-0.04-6.55,0.23c-1.83,0.23-3.67-0.02-5.46,0.25c-1.59,0.24-3.18-0.01-4.74,0.23c-1.43,0.22-2.86,0.02-4.25,0.25 C212.13,151.63,210.88,151.56,209.56,151.68z"/><path d="M250.37,137.11c-0.49,0.08-0.86,0.21-1.23,0.23c-1.55,0.08-3.1,0.2-4.64,0.48c-0.96,0.17-1.96,0.09-2.91,0.28 c-1.31,0.27-2.66,0.23-3.94,0.68c-0.64,0.23-1.38,0.17-2.07,0.27c-1.73,0.25-3.46,0.49-5.17,0.94c-1.07,0.28-2.21,0.3-3.3,0.52 c-1.97,0.4-3.97,0.64-5.92,1.17c-1.39,0.38-2.86,0.46-4.28,0.76c-2.03,0.43-4.04,0.95-6.06,1.41c-0.52,0.12-1.05,0.2-1.58,0.26 c-0.2,0.02-0.51,0.13-0.5-0.29c0-0.27,0.03-0.38,0.37-0.45c0.8-0.17,1.57-0.52,2.37-0.69c2.37-0.51,4.76-0.96,7.13-1.47 c1.77-0.38,3.53-0.84,5.31-1.19c1.17-0.23,2.37-0.3,3.54-0.51c1.08-0.19,2.13-0.51,3.21-0.7c1.13-0.21,2.3-0.26,3.42-0.51 c1.26-0.29,2.58-0.24,3.82-0.68c0.56-0.2,1.21-0.05,1.84-0.23c0.85-0.24,1.78-0.17,2.67-0.29c1.02-0.13,2.04-0.33,3.07-0.47 c0.81-0.11,1.62-0.19,2.44-0.24c1.62-0.1,3.25-0.06,4.85-0.28c1.38-0.19,2.79-0.02,4.13-0.25c1.55-0.27,3.09-0.06,4.62-0.2 c3.43-0.31,6.86-0.18,10.3-0.26c1.27-0.03,2.53-0.31,3.79-0.45c0.2-0.02,0.41,0.11,0.62,0.16c-0.07,0.21-0.08,0.52-0.22,0.62 c-0.3,0.2-0.68,0.38-1.03,0.4c-2.38,0.11-4.77,0.19-7.15,0.25c-1.21,0.03-2.42-0.02-3.63,0.01c-2.34,0.06-4.7,0.03-7.03,0.29 c-1.31,0.15-2.61,0.02-3.89,0.23C252.35,137.06,251.43,137.1,250.37,137.11z"/><path d="M51.88,142.25c4.13-0.06,8.2-0.06,12.27-0.06c0.42,0,1.11-0.15,1.13,0.34c0.02,0.52-0.66,0.37-1.07,0.38 c-2.38,0.08-4.77,0.19-7.15,0.24c-1.77,0.04-3.55-0.1-5.32,0.03c-3.55,0.25-7.12,0.06-10.66,0.28c-1.87,0.12-3.74-0.03-5.58,0.22 c-1.35,0.18-2.69,0.08-4.01,0.22c-1.79,0.19-3.57,0.38-5.36,0.49c-1.64,0.11-3.27,0.47-4.9,0.69c-0.4,0.05-0.81,0.03-1.21-0.01 c-0.13-0.01-0.32-0.17-0.36-0.3c-0.08-0.26,0.02-0.39,0.36-0.43c0.95-0.11,1.88-0.35,2.82-0.46c1.78-0.2,3.59-0.22,5.35-0.54 c0.95-0.17,1.89-0.05,2.8-0.22c1.46-0.28,2.94-0.03,4.37-0.26c1.67-0.28,3.33-0.05,4.98-0.21c3.71-0.35,7.43-0.2,11.14-0.24 C51.62,142.43,51.72,142.35,51.88,142.25z"/><path d="M253.03,128.16c1.78-0.08,3.46-0.01,5.09-0.28c1.67-0.28,3.33-0.04,4.98-0.21c2.7-0.28,5.42-0.37,8.11-0.18 c2.63,0.19,5.25,0.16,7.87,0.18c0.49,0,0.98-0.21,1.47-0.21c0.26,0,0.52,0.25,0.77,0.38c-0.21,0.19-0.4,0.52-0.62,0.54 c-1.33,0.13-2.69,0.37-4,0.23c-4.19-0.44-8.39-0.19-12.59-0.15c-1.93,0.02-3.89,0.03-5.81,0.24c-1.14,0.13-2.29,0.01-3.4,0.21 c-1.9,0.34-3.86,0.2-5.75,0.68c-0.82,0.21-1.71,0.14-2.55,0.27c-1.2,0.19-2.38,0.48-3.58,0.68c-1.98,0.32-3.91,0.78-5.81,1.44 c-0.15,0.05-0.38-0.16-0.58-0.25c0.11-0.22,0.16-0.58,0.33-0.64c0.81-0.29,1.63-0.55,2.47-0.74c1.51-0.35,3.03-0.67,4.55-0.97 c1.3-0.26,2.61-0.51,3.93-0.72c0.76-0.12,1.54-0.17,2.31-0.25C251.12,128.32,252.01,128.24,253.03,128.16z"/><path d="M26.91,130.34c2.87-0.08,5.63,0,8.36-0.29c2.19-0.24,4.39,0.04,6.55-0.23c2.03-0.26,4.07,0.01,6.06-0.25 c1.55-0.21,3.08-0.12,4.62-0.18c0.17-0.01,0.35,0.17,0.53,0.26c-0.16,0.15-0.3,0.4-0.49,0.44c-0.64,0.13-1.3,0.23-1.95,0.25 c-2.95,0.1-5.91,0-8.84,0.31c-2.16,0.22-4.31-0.04-6.43,0.22c-2.23,0.28-4.47,0.01-6.67,0.26c-1.35,0.15-2.69,0.06-4.01,0.2 c-2.31,0.25-4.62,0.38-6.93,0.51c-1.79,0.1-3.56,0.46-5.36,0.45c-0.12,0-0.28-0.02-0.34,0.05c-0.42,0.44-0.73,0.08-0.78-0.22 c-0.06-0.4,0.3-0.53,0.71-0.56c1.95-0.14,3.91-0.25,5.84-0.49c2.03-0.25,4.05-0.45,6.09-0.48 C24.85,130.56,25.82,130.42,26.91,130.34z"/></g></svg>