<?xml version="1.0" encoding="UTF-8" standalone="no"?><svg xmlns="http://www.w3.org/2000/svg" xmlns:xlink="http://www.w3.org/1999/xlink" fill="#000000" height="1000" preserveAspectRatio="xMidYMid meet" version="1" viewBox="0.0 0.0 1000.0 1000.0" width="1000" zoomAndPan="magnify"><g id="change1_1"><path d="M 938.019531 685.03125 C 919.558594 728.679688 894.949219 768.890625 864.632812 805.03125 C 828.25 794.902344 790.277344 786.320312 751.148438 779.394531 C 763.449219 752.101562 773.988281 723.242188 782.667969 693.003906 C 799.375 634.753906 808.367188 574.03125 809.417969 512.316406 L 975.214844 512.316406 C 973.703125 572.144531 961.214844 630.1875 938.019531 685.03125 Z M 836.140625 836.140625 C 792.480469 879.796875 741.632812 914.070312 685.03125 938.019531 C 659.828125 948.675781 633.949219 957.070312 607.527344 963.1875 C 609.613281 961.78125 611.699219 960.34375 613.777344 958.867188 C 649.507812 933.375 683.636719 896.109375 712.472656 851.09375 C 722.398438 835.601562 731.609375 819.367188 740.132812 802.480469 C 776.667969 808.761719 812.207031 816.46875 846.371094 825.574219 C 843.011719 829.136719 839.613281 832.660156 836.140625 836.140625 Z M 512.316406 974.203125 L 512.316406 782.480469 C 581.15625 783.054688 649.277344 788.441406 714.566406 798.34375 C 707.4375 811.980469 699.828125 825.15625 691.730469 837.800781 C 664.574219 880.195312 632.667969 915.132812 599.46875 938.816406 C 570.65625 959.367188 540.78125 971.460938 512.316406 974.203125 Z M 512.316406 512.316406 L 784.785156 512.316406 C 783.726562 571.730469 775.066406 630.171875 758.988281 686.214844 C 750.015625 717.511719 738.980469 747.25 726.003906 775.1875 C 657.136719 764.335938 585.105469 758.449219 512.316406 757.847656 Z M 512.316406 242.152344 C 585.105469 241.550781 657.136719 235.664062 726.003906 224.8125 C 738.980469 252.75 750.015625 282.488281 758.988281 313.785156 C 775.066406 369.828125 783.726562 428.269531 784.785156 487.683594 L 512.316406 487.683594 Z M 512.316406 25.796875 C 540.78125 28.539062 570.65625 40.632812 599.46875 61.183594 C 632.667969 84.867188 664.574219 119.804688 691.730469 162.199219 C 699.828125 174.84375 707.4375 188.019531 714.566406 201.65625 C 649.277344 211.558594 581.15625 216.945312 512.316406 217.519531 Z M 685.03125 61.980469 C 741.632812 85.929688 792.480469 120.203125 836.140625 163.859375 C 839.613281 167.339844 843.011719 170.863281 846.371094 174.425781 C 812.207031 183.53125 776.667969 191.238281 740.132812 197.519531 C 731.609375 180.632812 722.398438 164.402344 712.472656 148.90625 C 683.636719 103.890625 649.507812 66.625 613.777344 41.132812 C 611.699219 39.65625 609.613281 38.21875 607.527344 36.8125 C 633.949219 42.929688 659.828125 51.320312 685.03125 61.980469 Z M 864.632812 194.96875 C 894.949219 231.109375 919.558594 271.320312 938.019531 314.96875 C 961.214844 369.8125 973.703125 427.855469 975.214844 487.683594 L 809.417969 487.683594 C 808.367188 425.96875 799.375 365.246094 782.667969 306.996094 C 773.988281 276.757812 763.449219 247.898438 751.148438 220.605469 C 790.277344 213.679688 828.25 205.097656 864.632812 194.96875 Z M 487.683594 217.519531 C 418.84375 216.945312 350.722656 211.558594 285.433594 201.65625 C 292.5625 188.019531 300.171875 174.84375 308.269531 162.199219 C 335.425781 119.804688 367.332031 84.867188 400.535156 61.183594 C 429.34375 40.632812 459.21875 28.539062 487.683594 25.796875 Z M 487.683594 487.683594 L 215.214844 487.683594 C 216.273438 428.269531 224.933594 369.828125 241.011719 313.785156 C 249.984375 282.488281 261.019531 252.75 274 224.8125 C 342.863281 235.664062 414.894531 241.550781 487.683594 242.152344 Z M 487.683594 757.847656 C 414.894531 758.449219 342.863281 764.335938 274 775.1875 C 261.019531 747.25 249.984375 717.511719 241.011719 686.214844 C 224.933594 630.171875 216.273438 571.730469 215.214844 512.316406 L 487.683594 512.316406 Z M 487.683594 974.203125 C 459.21875 971.460938 429.34375 959.367188 400.535156 938.816406 C 367.332031 915.132812 335.425781 880.195312 308.269531 837.800781 C 300.171875 825.15625 292.5625 811.980469 285.433594 798.34375 C 350.722656 788.441406 418.84375 783.054688 487.683594 782.480469 Z M 314.96875 938.019531 C 258.367188 914.070312 207.519531 879.796875 163.859375 836.140625 C 160.386719 832.660156 156.988281 829.136719 153.628906 825.574219 C 187.792969 816.46875 223.332031 808.761719 259.867188 802.480469 C 268.390625 819.367188 277.601562 835.601562 287.527344 851.09375 C 316.371094 896.109375 350.492188 933.375 386.222656 958.867188 C 388.300781 960.34375 390.386719 961.78125 392.472656 963.1875 C 366.050781 957.070312 340.171875 948.675781 314.96875 938.019531 Z M 135.371094 805.03125 C 105.050781 768.890625 80.445312 728.679688 61.976562 685.03125 C 38.785156 630.1875 26.296875 572.144531 24.785156 512.316406 L 190.582031 512.316406 C 191.632812 574.03125 200.625 634.753906 217.332031 693.003906 C 226.011719 723.242188 236.550781 752.101562 248.851562 779.394531 C 209.722656 786.328125 171.75 794.902344 135.371094 805.03125 Z M 61.976562 314.96875 C 80.445312 271.320312 105.050781 231.109375 135.371094 194.96875 C 171.75 205.097656 209.722656 213.671875 248.851562 220.605469 C 236.550781 247.898438 226.011719 276.757812 217.332031 306.996094 C 200.625 365.246094 191.632812 425.96875 190.582031 487.683594 L 24.785156 487.683594 C 26.296875 427.855469 38.785156 369.8125 61.976562 314.96875 Z M 163.859375 163.859375 C 207.519531 120.203125 258.367188 85.929688 314.96875 61.980469 C 340.171875 51.320312 366.050781 42.929688 392.472656 36.8125 C 390.386719 38.21875 388.300781 39.65625 386.222656 41.132812 C 350.492188 66.625 316.371094 103.890625 287.527344 148.90625 C 277.601562 164.402344 268.390625 180.632812 259.867188 197.519531 C 223.332031 191.238281 187.792969 183.53125 153.628906 174.425781 C 156.988281 170.863281 160.386719 167.339844 163.859375 163.859375 Z M 960.707031 305.378906 C 935.519531 245.828125 899.46875 192.363281 853.554688 146.445312 C 807.636719 100.535156 754.171875 64.484375 694.621094 39.292969 C 632.972656 13.21875 567.496094 0 500 0 C 432.503906 0 367.027344 13.21875 305.378906 39.292969 C 245.828125 64.484375 192.363281 100.535156 146.445312 146.445312 C 100.535156 192.363281 64.484375 245.828125 39.292969 305.378906 C 13.21875 367.027344 0 432.503906 0 500 C 0 567.496094 13.21875 632.972656 39.292969 694.621094 C 64.484375 754.171875 100.535156 807.636719 146.445312 853.554688 C 192.363281 899.46875 245.828125 935.519531 305.378906 960.707031 C 367.027344 986.78125 432.503906 1000 500 1000 C 567.496094 1000 632.972656 986.78125 694.621094 960.707031 C 754.171875 935.519531 807.636719 899.46875 853.554688 853.554688 C 899.46875 807.636719 935.519531 754.171875 960.707031 694.621094 C 986.78125 632.972656 1000 567.496094 1000 500 C 1000 432.503906 986.78125 367.027344 960.707031 305.378906" fill="#f4f6fc"/></g></svg>