<?xml version="1.0" encoding="UTF-8" standalone="no"?><svg xmlns="http://www.w3.org/2000/svg" xmlns:xlink="http://www.w3.org/1999/xlink" fill="#f4f6fc" height="111.6" preserveAspectRatio="xMidYMid meet" version="1" viewBox="0.0 0.0 126.3 111.6" width="126.3" zoomAndPan="magnify"><g id="change1_1"><path d="M40.46,17.281h34.749c0.553,0,1-0.448,1-1s-0.447-1-1-1H40.46c-0.553,0-1,0.448-1,1S39.907,17.281,40.46,17.281z" fill="inherit"/><path d="M29.432,27.946h51.312c0.553,0,1-0.448,1-1s-0.447-1-1-1H29.432c-0.553,0-1,0.448-1,1S28.879,27.946,29.432,27.946z" fill="inherit"/><path d="M80.743,36.877H29.432c-0.553,0-1,0.448-1,1s0.447,1,1,1h51.312c0.553,0,1-0.448,1-1S81.296,36.877,80.743,36.877z" fill="inherit"/><path d="M15.811,60.276v8.316c0,0.552,0.447,1,1,1h13.573l6.866,3.794c0.151,0.083,0.317,0.125,0.483,0.125 c0.223,0,0.445-0.075,0.626-0.221c0.316-0.254,0.448-0.674,0.333-1.063l-1.119-3.78v-8.171c0-0.552-0.447-1-1-1H16.811 C16.258,59.276,15.811,59.724,15.811,60.276z M17.811,61.276h17.763v7.316c0,0.096,0.014,0.192,0.041,0.284l0.468,1.58 l-4.957-2.739c-0.147-0.082-0.314-0.125-0.483-0.125H17.811V61.276z" fill="inherit"/><path d="M33.16,64.481c0-0.552-0.447-1-1-1H20.996c-0.553,0-1,0.448-1,1s0.447,1,1,1H32.16 C32.713,65.481,33.16,65.033,33.16,64.481z" fill="inherit"/><path d="M11.192,79.746h18.239c0.553,0,1-0.448,1-1s-0.447-1-1-1H11.192c-0.553,0-1,0.448-1,1S10.64,79.746,11.192,79.746z" fill="inherit"/><path d="M11.192,85.683h18.239c0.553,0,1-0.448,1-1s-0.447-1-1-1H11.192c-0.553,0-1,0.448-1,1S10.64,85.683,11.192,85.683z" fill="inherit"/><path d="M34.633,73.796H6.941c-0.553,0-1,0.448-1,1v14.207l-2.396,4.836c-0.189,0.383-0.115,0.843,0.186,1.147 c0.192,0.194,0.449,0.297,0.711,0.297c0.147,0,0.295-0.032,0.434-0.099l10.288-4.947h19.469c0.553,0,1-0.448,1-1V74.796 C35.633,74.244,35.186,73.796,34.633,73.796z M33.633,88.237H14.937c-0.15,0-0.298,0.034-0.434,0.099l-7.875,3.787l1.21-2.441 c0.068-0.138,0.104-0.29,0.104-0.444V75.796h25.691V88.237z" fill="inherit"/><path d="M123.906,29.728l0.62-1.044c0.314-0.528,0.403-1.146,0.251-1.742c-0.151-0.595-0.526-1.095-1.054-1.408l-1.266-0.752 l2.88-4.854c0.718-1.208,0.922-2.624,0.575-3.986c-0.348-1.362-1.204-2.507-2.414-3.226l-0.35-0.207 c-1.208-0.718-2.626-0.92-3.986-0.574c-1.361,0.347-2.507,1.204-3.225,2.413l-2.881,4.854l-1.265-0.751 c-1.09-0.646-2.502-0.287-3.15,0.803l-2.237,3.769c-0.517,0.873-0.38,1.947,0.252,2.675L91.17,51.786V1c0-0.552-0.447-1-1-1H34.633 c-0.022,0-0.041,0.011-0.063,0.013c-0.091,0.006-0.178,0.023-0.264,0.053c-0.036,0.013-0.07,0.024-0.103,0.04 c-0.08,0.039-0.154,0.09-0.222,0.15c-0.021,0.018-0.045,0.031-0.064,0.051c-0.005,0.005-0.011,0.008-0.016,0.013L18.184,17.232 c-0.075,0.081-0.131,0.173-0.175,0.271c-0.012,0.026-0.017,0.054-0.026,0.082c-0.031,0.088-0.049,0.178-0.055,0.271 c-0.001,0.02-0.012,0.037-0.012,0.058V43.01H7.869C3.53,43.01,0,46.54,0,50.879v52.827c0,4.339,3.53,7.87,7.869,7.87h26.254 c4.34,0,7.87-3.53,7.87-7.87v-3.877H90.17c0.553,0,1-0.448,1-1V81.777l18.455-31.09l1.163,0.69 c0.546,0.324,1.147,0.478,1.748,0.478c1.253,0,2.499-0.671,3.208-1.864l9.132-15.386c0.502-0.845,0.664-1.826,0.456-2.764 C125.136,30.959,124.627,30.225,123.906,29.728z M114.776,20.224l2.882-4.854c0.444-0.749,1.154-1.28,1.998-1.495 c0.847-0.215,1.721-0.089,2.473,0.357l0.35,0.207c0.749,0.445,1.28,1.155,1.495,1.999c0.216,0.844,0.089,1.722-0.356,2.471 l-2.881,4.854l-3.875-2.3L114.776,20.224z M108.124,24.044l2.236-3.768c0.085-0.141,0.27-0.188,0.409-0.104l5.966,3.541l3.84,2.28 c0,0,0.001,0,0.001,0.001l2.125,1.261c0.089,0.052,0.124,0.128,0.138,0.183s0.02,0.138-0.033,0.226l-1.118,1.883 c0,0.001-0.001,0.001-0.002,0.002c0,0.001,0,0.001-0.001,0.002l-1.116,1.881c-0.084,0.141-0.27,0.188-0.409,0.104l-0.241-0.143 c-0.001,0-0.001-0.001-0.002-0.002l-10.091-5.99l-1.597-0.948C108.087,24.369,108.04,24.185,108.124,24.044z M76.639,87.609 c1.183,0.212,2.221,0.856,3.138,1.957c-1.399,0.883-2.437,1.364-2.843,1.259C76.618,90.503,76.533,89.315,76.639,87.609z M81.443,88.444c-1.295-1.618-2.843-2.566-4.619-2.834c0.244-2.078,0.674-4.572,1.258-7.146l9.099,5.402 C85.173,85.636,83.161,87.227,81.443,88.444z M88.515,82.331l-9.724-5.772l29.52-49.731l9.724,5.772l-9.62,16.206 c-0.001,0.001-0.001,0.002-0.001,0.003L88.515,82.331z M33.633,3.545v13.368H21.21L33.633,3.545z M7.869,45.01h26.254 c2.314,0,4.314,1.35,5.27,3.3c0,0.005-0.003,0.009-0.003,0.015c0,0.281,0.117,0.533,0.304,0.714c0.192,0.58,0.3,1.197,0.3,1.84 v1.469H30.33c-0.332,0-0.643,0.165-0.828,0.439l-1.925,2.844H14.416l-1.925-2.844c-0.186-0.275-0.496-0.439-0.828-0.439H2v-1.469 C2,47.643,4.633,45.01,7.869,45.01z M32.912,102.377c0.274-0.519,0.444-1.101,0.444-1.728v-0.262c0-0.627-0.17-1.209-0.444-1.728 h7.081v3.717H32.912z M39.993,96.661H29.629H12.364H2V54.349h9.132l1.925,2.844c0.186,0.275,0.496,0.439,0.828,0.439h14.224 c0.332,0,0.643-0.165,0.828-0.439l1.925-2.844h9.132V96.661z M2,98.661h7.081c-0.274,0.519-0.444,1.101-0.444,1.728v0.262 c0,0.627,0.17,1.209,0.444,1.728H2V98.661z M10.637,100.65v-0.262c0-0.953,0.775-1.728,1.728-1.728h17.265 c0.952,0,1.728,0.775,1.728,1.728v0.262c0,0.953-0.775,1.728-1.728,1.728H12.364C11.412,102.377,10.637,101.603,10.637,100.65z M34.123,109.576H7.869c-3.009,0-5.493-2.278-5.828-5.199h10.323h17.265h10.323C39.617,107.299,37.132,109.576,34.123,109.576z M41.993,97.829V74.376h24.802c0.553,0,1-0.448,1-1s-0.447-1-1-1H41.993V61.994h38.75c0.553,0,1-0.448,1-1s-0.447-1-1-1h-38.75 v-9.114c0-0.532-0.054-1.052-0.156-1.555h22.902c0.553,0,1-0.448,1-1s-0.447-1-1-1H41.135c-1.301-2.556-3.952-4.315-7.012-4.315 H19.916V18.913h14.717c0.553,0,1-0.448,1-1V2H89.17v53.156L76.561,76.398c-0.026,0.045-0.03,0.094-0.049,0.141 c-0.019,0.045-0.05,0.082-0.062,0.131c-1.293,5.278-3.087,14.357-0.562,15.856c0.275,0.163,0.604,0.238,0.977,0.238 c2.959,0,8.695-4.727,12.306-7.991v13.056H41.993z M123.156,33.584l-9.132,15.386c-0.485,0.816-1.479,1.126-2.215,0.688 l-1.163-0.69l9.174-15.455c0.161,0.035,0.324,0.064,0.487,0.064c0.785,0,1.552-0.401,1.981-1.124l0.583-0.982 c0.243,0.206,0.434,0.471,0.508,0.804C123.477,32.713,123.397,33.178,123.156,33.584z" fill="inherit"/></g></svg>